<?xml version="1.0" encoding="utf-8" standalone="no"?>
<!DOCTYPE svg PUBLIC "-//W3C//DTD SVG 1.1//EN"
  "http://www.w3.org/Graphics/SVG/1.1/DTD/svg11.dtd">
<svg height="1054.515pt" version="1.1" viewBox="0 0 1292.6525 1054.515" width="1292.6525pt" xmlns="http://www.w3.org/2000/svg" xmlns:xlink="http://www.w3.org/1999/xlink">
 <metadata>
  <rdf:RDF xmlns:cc="http://creativecommons.org/ns#" xmlns:dc="http://purl.org/dc/elements/1.1/" xmlns:rdf="http://www.w3.org/1999/02/22-rdf-syntax-ns#">
   <cc:Work>
    <dc:type rdf:resource="http://purl.org/dc/dcmitype/StillImage"/>
    <dc:date>2026-10-06T11:10:10.884636</dc:date>
    <dc:format>image/svg+xml</dc:format>
    <dc:creator>
     <cc:Agent>
      <dc:title>Matplotlib v3.4.3, https://matplotlib.org/</dc:title>
     </cc:Agent>
    </dc:creator>
   </cc:Work>
  </rdf:RDF>
 </metadata>
 <defs>
  <style type="text/css">*{stroke-linecap:butt;stroke-linejoin:round;}</style>
 </defs>
 <g id="figure_1">
  <g id="patch_1">
   <path d="M 0 1054.515 
L 1292.6525 1054.515 
L 1292.6525 0 
L 0 0 
z
" style="fill:#ffffff;"/>
  </g>
  <g id="axes_1">
   <g id="patch_2">
    <path d="M 169.4525 938.094375 
L 1285.4525 938.094375 
L 1285.4525 51.054375 
L 169.4525 51.054375 
z
" style="fill:#eaeaf2;"/>
   </g>
   <g id="matplotlib.axis_1">
    <g id="xtick_1">
     <g id="line2d_1">
      <path clip-path="url(#p3f152a8bf2)" d="M 220.179773 938.094375 
L 220.179773 51.054375 
" style="fill:none;stroke:#ffffff;stroke-linecap:round;"/>
     </g>
     <g id="text_1">
      <!-- 0.0 -->
      <g style="fill:#262626;" transform="translate(184.039773 984.815)scale(0.52 -0.52)">
       <defs>
        <path d="M 266 2259 
Q 266 3072 433 3567 
Q 600 4063 929 4331 
Q 1259 4600 1759 4600 
Q 2128 4600 2406 4451 
Q 2684 4303 2865 4023 
Q 3047 3744 3150 3342 
Q 3253 2941 3253 2259 
Q 3253 1453 3087 958 
Q 2922 463 2592 192 
Q 2263 -78 1759 -78 
Q 1097 -78 719 397 
Q 266 969 266 2259 
z
M 844 2259 
Q 844 1131 1108 757 
Q 1372 384 1759 384 
Q 2147 384 2411 759 
Q 2675 1134 2675 2259 
Q 2675 3391 2411 3762 
Q 2147 4134 1753 4134 
Q 1366 4134 1134 3806 
Q 844 3388 844 2259 
z
" id="ArialMT-30" transform="scale(0.015625)"/>
        <path d="M 581 0 
L 581 641 
L 1222 641 
L 1222 0 
L 581 0 
z
" id="ArialMT-2e" transform="scale(0.015625)"/>
       </defs>
       <use xlink:href="#ArialMT-30"/>
       <use x="55.615234" xlink:href="#ArialMT-2e"/>
       <use x="83.398438" xlink:href="#ArialMT-30"/>
      </g>
     </g>
    </g>
    <g id="xtick_2">
     <g id="line2d_2">
      <path clip-path="url(#p3f152a8bf2)" d="M 423.088864 938.094375 
L 423.088864 51.054375 
" style="fill:none;stroke:#ffffff;stroke-linecap:round;"/>
     </g>
     <g id="text_2">
      <!-- 0.2 -->
      <g style="fill:#262626;" transform="translate(386.948864 984.815)scale(0.52 -0.52)">
       <defs>
        <path d="M 3222 541 
L 3222 0 
L 194 0 
Q 188 203 259 391 
Q 375 700 629 1000 
Q 884 1300 1366 1694 
Q 2113 2306 2375 2664 
Q 2638 3022 2638 3341 
Q 2638 3675 2398 3904 
Q 2159 4134 1775 4134 
Q 1369 4134 1125 3890 
Q 881 3647 878 3216 
L 300 3275 
Q 359 3922 746 4261 
Q 1134 4600 1788 4600 
Q 2447 4600 2831 4234 
Q 3216 3869 3216 3328 
Q 3216 3053 3103 2787 
Q 2991 2522 2730 2228 
Q 2469 1934 1863 1422 
Q 1356 997 1212 845 
Q 1069 694 975 541 
L 3222 541 
z
" id="ArialMT-32" transform="scale(0.015625)"/>
       </defs>
       <use xlink:href="#ArialMT-30"/>
       <use x="55.615234" xlink:href="#ArialMT-2e"/>
       <use x="83.398438" xlink:href="#ArialMT-32"/>
      </g>
     </g>
    </g>
    <g id="xtick_3">
     <g id="line2d_3">
      <path clip-path="url(#p3f152a8bf2)" d="M 625.997955 938.094375 
L 625.997955 51.054375 
" style="fill:none;stroke:#ffffff;stroke-linecap:round;"/>
     </g>
     <g id="text_3">
      <!-- 0.4 -->
      <g style="fill:#262626;" transform="translate(589.857955 984.815)scale(0.52 -0.52)">
       <defs>
        <path d="M 2069 0 
L 2069 1097 
L 81 1097 
L 81 1613 
L 2172 4581 
L 2631 4581 
L 2631 1613 
L 3250 1613 
L 3250 1097 
L 2631 1097 
L 2631 0 
L 2069 0 
z
M 2069 1613 
L 2069 3678 
L 634 1613 
L 2069 1613 
z
" id="ArialMT-34" transform="scale(0.015625)"/>
       </defs>
       <use xlink:href="#ArialMT-30"/>
       <use x="55.615234" xlink:href="#ArialMT-2e"/>
       <use x="83.398438" xlink:href="#ArialMT-34"/>
      </g>
     </g>
    </g>
    <g id="xtick_4">
     <g id="line2d_4">
      <path clip-path="url(#p3f152a8bf2)" d="M 828.907045 938.094375 
L 828.907045 51.054375 
" style="fill:none;stroke:#ffffff;stroke-linecap:round;"/>
     </g>
     <g id="text_4">
      <!-- 0.6 -->
      <g style="fill:#262626;" transform="translate(792.767045 984.815)scale(0.52 -0.52)">
       <defs>
        <path d="M 3184 3459 
L 2625 3416 
Q 2550 3747 2413 3897 
Q 2184 4138 1850 4138 
Q 1581 4138 1378 3988 
Q 1113 3794 959 3422 
Q 806 3050 800 2363 
Q 1003 2672 1297 2822 
Q 1591 2972 1913 2972 
Q 2475 2972 2870 2558 
Q 3266 2144 3266 1488 
Q 3266 1056 3080 686 
Q 2894 316 2569 119 
Q 2244 -78 1831 -78 
Q 1128 -78 684 439 
Q 241 956 241 2144 
Q 241 3472 731 4075 
Q 1159 4600 1884 4600 
Q 2425 4600 2770 4297 
Q 3116 3994 3184 3459 
z
M 888 1484 
Q 888 1194 1011 928 
Q 1134 663 1356 523 
Q 1578 384 1822 384 
Q 2178 384 2434 671 
Q 2691 959 2691 1453 
Q 2691 1928 2437 2201 
Q 2184 2475 1800 2475 
Q 1419 2475 1153 2201 
Q 888 1928 888 1484 
z
" id="ArialMT-36" transform="scale(0.015625)"/>
       </defs>
       <use xlink:href="#ArialMT-30"/>
       <use x="55.615234" xlink:href="#ArialMT-2e"/>
       <use x="83.398438" xlink:href="#ArialMT-36"/>
      </g>
     </g>
    </g>
    <g id="xtick_5">
     <g id="line2d_5">
      <path clip-path="url(#p3f152a8bf2)" d="M 1031.816136 938.094375 
L 1031.816136 51.054375 
" style="fill:none;stroke:#ffffff;stroke-linecap:round;"/>
     </g>
     <g id="text_5">
      <!-- 0.8 -->
      <g style="fill:#262626;" transform="translate(995.676136 984.815)scale(0.52 -0.52)">
       <defs>
        <path d="M 1131 2484 
Q 781 2613 612 2850 
Q 444 3088 444 3419 
Q 444 3919 803 4259 
Q 1163 4600 1759 4600 
Q 2359 4600 2725 4251 
Q 3091 3903 3091 3403 
Q 3091 3084 2923 2848 
Q 2756 2613 2416 2484 
Q 2838 2347 3058 2040 
Q 3278 1734 3278 1309 
Q 3278 722 2862 322 
Q 2447 -78 1769 -78 
Q 1091 -78 675 323 
Q 259 725 259 1325 
Q 259 1772 486 2073 
Q 713 2375 1131 2484 
z
M 1019 3438 
Q 1019 3113 1228 2906 
Q 1438 2700 1772 2700 
Q 2097 2700 2305 2904 
Q 2513 3109 2513 3406 
Q 2513 3716 2298 3927 
Q 2084 4138 1766 4138 
Q 1444 4138 1231 3931 
Q 1019 3725 1019 3438 
z
M 838 1322 
Q 838 1081 952 856 
Q 1066 631 1291 507 
Q 1516 384 1775 384 
Q 2178 384 2440 643 
Q 2703 903 2703 1303 
Q 2703 1709 2433 1975 
Q 2163 2241 1756 2241 
Q 1359 2241 1098 1978 
Q 838 1716 838 1322 
z
" id="ArialMT-38" transform="scale(0.015625)"/>
       </defs>
       <use xlink:href="#ArialMT-30"/>
       <use x="55.615234" xlink:href="#ArialMT-2e"/>
       <use x="83.398438" xlink:href="#ArialMT-38"/>
      </g>
     </g>
    </g>
    <g id="xtick_6">
     <g id="line2d_6">
      <path clip-path="url(#p3f152a8bf2)" d="M 1234.725227 938.094375 
L 1234.725227 51.054375 
" style="fill:none;stroke:#ffffff;stroke-linecap:round;"/>
     </g>
     <g id="text_6">
      <!-- 1.0 -->
      <g style="fill:#262626;" transform="translate(1198.585227 984.815)scale(0.52 -0.52)">
       <defs>
        <path d="M 2384 0 
L 1822 0 
L 1822 3584 
Q 1619 3391 1289 3197 
Q 959 3003 697 2906 
L 697 3450 
Q 1169 3672 1522 3987 
Q 1875 4303 2022 4600 
L 2384 4600 
L 2384 0 
z
" id="ArialMT-31" transform="scale(0.015625)"/>
       </defs>
       <use xlink:href="#ArialMT-31"/>
       <use x="55.615234" xlink:href="#ArialMT-2e"/>
       <use x="83.398438" xlink:href="#ArialMT-30"/>
      </g>
     </g>
    </g>
    <g id="text_7">
     <!-- Perturbation scaling -->
     <g style="fill:#262626;" transform="translate(497.669375 1036.370625)scale(0.52 -0.52)">
      <defs>
       <path d="M 494 0 
L 494 4581 
L 2222 4581 
Q 2678 4581 2919 4538 
Q 3256 4481 3484 4323 
Q 3713 4166 3852 3881 
Q 3991 3597 3991 3256 
Q 3991 2672 3619 2267 
Q 3247 1863 2275 1863 
L 1100 1863 
L 1100 0 
L 494 0 
z
M 1100 2403 
L 2284 2403 
Q 2872 2403 3119 2622 
Q 3366 2841 3366 3238 
Q 3366 3525 3220 3729 
Q 3075 3934 2838 4000 
Q 2684 4041 2272 4041 
L 1100 4041 
L 1100 2403 
z
" id="ArialMT-50" transform="scale(0.015625)"/>
       <path d="M 2694 1069 
L 3275 997 
Q 3138 488 2766 206 
Q 2394 -75 1816 -75 
Q 1088 -75 661 373 
Q 234 822 234 1631 
Q 234 2469 665 2931 
Q 1097 3394 1784 3394 
Q 2450 3394 2872 2941 
Q 3294 2488 3294 1666 
Q 3294 1616 3291 1516 
L 816 1516 
Q 847 969 1125 678 
Q 1403 388 1819 388 
Q 2128 388 2347 550 
Q 2566 713 2694 1069 
z
M 847 1978 
L 2700 1978 
Q 2663 2397 2488 2606 
Q 2219 2931 1791 2931 
Q 1403 2931 1139 2672 
Q 875 2413 847 1978 
z
" id="ArialMT-65" transform="scale(0.015625)"/>
       <path d="M 416 0 
L 416 3319 
L 922 3319 
L 922 2816 
Q 1116 3169 1280 3281 
Q 1444 3394 1641 3394 
Q 1925 3394 2219 3213 
L 2025 2691 
Q 1819 2813 1613 2813 
Q 1428 2813 1281 2702 
Q 1134 2591 1072 2394 
Q 978 2094 978 1738 
L 978 0 
L 416 0 
z
" id="ArialMT-72" transform="scale(0.015625)"/>
       <path d="M 1650 503 
L 1731 6 
Q 1494 -44 1306 -44 
Q 1000 -44 831 53 
Q 663 150 594 308 
Q 525 466 525 972 
L 525 2881 
L 113 2881 
L 113 3319 
L 525 3319 
L 525 4141 
L 1084 4478 
L 1084 3319 
L 1650 3319 
L 1650 2881 
L 1084 2881 
L 1084 941 
Q 1084 700 1114 631 
Q 1144 563 1211 522 
Q 1278 481 1403 481 
Q 1497 481 1650 503 
z
" id="ArialMT-74" transform="scale(0.015625)"/>
       <path d="M 2597 0 
L 2597 488 
Q 2209 -75 1544 -75 
Q 1250 -75 995 37 
Q 741 150 617 320 
Q 494 491 444 738 
Q 409 903 409 1263 
L 409 3319 
L 972 3319 
L 972 1478 
Q 972 1038 1006 884 
Q 1059 663 1231 536 
Q 1403 409 1656 409 
Q 1909 409 2131 539 
Q 2353 669 2445 892 
Q 2538 1116 2538 1541 
L 2538 3319 
L 3100 3319 
L 3100 0 
L 2597 0 
z
" id="ArialMT-75" transform="scale(0.015625)"/>
       <path d="M 941 0 
L 419 0 
L 419 4581 
L 981 4581 
L 981 2947 
Q 1338 3394 1891 3394 
Q 2197 3394 2470 3270 
Q 2744 3147 2920 2923 
Q 3097 2700 3197 2384 
Q 3297 2069 3297 1709 
Q 3297 856 2875 390 
Q 2453 -75 1863 -75 
Q 1275 -75 941 416 
L 941 0 
z
M 934 1684 
Q 934 1088 1097 822 
Q 1363 388 1816 388 
Q 2184 388 2453 708 
Q 2722 1028 2722 1663 
Q 2722 2313 2464 2622 
Q 2206 2931 1841 2931 
Q 1472 2931 1203 2611 
Q 934 2291 934 1684 
z
" id="ArialMT-62" transform="scale(0.015625)"/>
       <path d="M 2588 409 
Q 2275 144 1986 34 
Q 1697 -75 1366 -75 
Q 819 -75 525 192 
Q 231 459 231 875 
Q 231 1119 342 1320 
Q 453 1522 633 1644 
Q 813 1766 1038 1828 
Q 1203 1872 1538 1913 
Q 2219 1994 2541 2106 
Q 2544 2222 2544 2253 
Q 2544 2597 2384 2738 
Q 2169 2928 1744 2928 
Q 1347 2928 1158 2789 
Q 969 2650 878 2297 
L 328 2372 
Q 403 2725 575 2942 
Q 747 3159 1072 3276 
Q 1397 3394 1825 3394 
Q 2250 3394 2515 3294 
Q 2781 3194 2906 3042 
Q 3031 2891 3081 2659 
Q 3109 2516 3109 2141 
L 3109 1391 
Q 3109 606 3145 398 
Q 3181 191 3288 0 
L 2700 0 
Q 2613 175 2588 409 
z
M 2541 1666 
Q 2234 1541 1622 1453 
Q 1275 1403 1131 1340 
Q 988 1278 909 1158 
Q 831 1038 831 891 
Q 831 666 1001 516 
Q 1172 366 1500 366 
Q 1825 366 2078 508 
Q 2331 650 2450 897 
Q 2541 1088 2541 1459 
L 2541 1666 
z
" id="ArialMT-61" transform="scale(0.015625)"/>
       <path d="M 425 3934 
L 425 4581 
L 988 4581 
L 988 3934 
L 425 3934 
z
M 425 0 
L 425 3319 
L 988 3319 
L 988 0 
L 425 0 
z
" id="ArialMT-69" transform="scale(0.015625)"/>
       <path d="M 213 1659 
Q 213 2581 725 3025 
Q 1153 3394 1769 3394 
Q 2453 3394 2887 2945 
Q 3322 2497 3322 1706 
Q 3322 1066 3130 698 
Q 2938 331 2570 128 
Q 2203 -75 1769 -75 
Q 1072 -75 642 372 
Q 213 819 213 1659 
z
M 791 1659 
Q 791 1022 1069 705 
Q 1347 388 1769 388 
Q 2188 388 2466 706 
Q 2744 1025 2744 1678 
Q 2744 2294 2464 2611 
Q 2184 2928 1769 2928 
Q 1347 2928 1069 2612 
Q 791 2297 791 1659 
z
" id="ArialMT-6f" transform="scale(0.015625)"/>
       <path d="M 422 0 
L 422 3319 
L 928 3319 
L 928 2847 
Q 1294 3394 1984 3394 
Q 2284 3394 2536 3286 
Q 2788 3178 2913 3003 
Q 3038 2828 3088 2588 
Q 3119 2431 3119 2041 
L 3119 0 
L 2556 0 
L 2556 2019 
Q 2556 2363 2490 2533 
Q 2425 2703 2258 2804 
Q 2091 2906 1866 2906 
Q 1506 2906 1245 2678 
Q 984 2450 984 1813 
L 984 0 
L 422 0 
z
" id="ArialMT-6e" transform="scale(0.015625)"/>
       <path id="ArialMT-20" transform="scale(0.015625)"/>
       <path d="M 197 991 
L 753 1078 
Q 800 744 1014 566 
Q 1228 388 1613 388 
Q 2000 388 2187 545 
Q 2375 703 2375 916 
Q 2375 1106 2209 1216 
Q 2094 1291 1634 1406 
Q 1016 1563 777 1677 
Q 538 1791 414 1992 
Q 291 2194 291 2438 
Q 291 2659 392 2848 
Q 494 3038 669 3163 
Q 800 3259 1026 3326 
Q 1253 3394 1513 3394 
Q 1903 3394 2198 3281 
Q 2494 3169 2634 2976 
Q 2775 2784 2828 2463 
L 2278 2388 
Q 2241 2644 2061 2787 
Q 1881 2931 1553 2931 
Q 1166 2931 1000 2803 
Q 834 2675 834 2503 
Q 834 2394 903 2306 
Q 972 2216 1119 2156 
Q 1203 2125 1616 2013 
Q 2213 1853 2448 1751 
Q 2684 1650 2818 1456 
Q 2953 1263 2953 975 
Q 2953 694 2789 445 
Q 2625 197 2315 61 
Q 2006 -75 1616 -75 
Q 969 -75 630 194 
Q 291 463 197 991 
z
" id="ArialMT-73" transform="scale(0.015625)"/>
       <path d="M 2588 1216 
L 3141 1144 
Q 3050 572 2676 248 
Q 2303 -75 1759 -75 
Q 1078 -75 664 370 
Q 250 816 250 1647 
Q 250 2184 428 2587 
Q 606 2991 970 3192 
Q 1334 3394 1763 3394 
Q 2303 3394 2647 3120 
Q 2991 2847 3088 2344 
L 2541 2259 
Q 2463 2594 2264 2762 
Q 2066 2931 1784 2931 
Q 1359 2931 1093 2626 
Q 828 2322 828 1663 
Q 828 994 1084 691 
Q 1341 388 1753 388 
Q 2084 388 2306 591 
Q 2528 794 2588 1216 
z
" id="ArialMT-63" transform="scale(0.015625)"/>
       <path d="M 409 0 
L 409 4581 
L 972 4581 
L 972 0 
L 409 0 
z
" id="ArialMT-6c" transform="scale(0.015625)"/>
       <path d="M 319 -275 
L 866 -356 
Q 900 -609 1056 -725 
Q 1266 -881 1628 -881 
Q 2019 -881 2231 -725 
Q 2444 -569 2519 -288 
Q 2563 -116 2559 434 
Q 2191 0 1641 0 
Q 956 0 581 494 
Q 206 988 206 1678 
Q 206 2153 378 2554 
Q 550 2956 876 3175 
Q 1203 3394 1644 3394 
Q 2231 3394 2613 2919 
L 2613 3319 
L 3131 3319 
L 3131 450 
Q 3131 -325 2973 -648 
Q 2816 -972 2473 -1159 
Q 2131 -1347 1631 -1347 
Q 1038 -1347 672 -1080 
Q 306 -813 319 -275 
z
M 784 1719 
Q 784 1066 1043 766 
Q 1303 466 1694 466 
Q 2081 466 2343 764 
Q 2606 1063 2606 1700 
Q 2606 2309 2336 2618 
Q 2066 2928 1684 2928 
Q 1309 2928 1046 2623 
Q 784 2319 784 1719 
z
" id="ArialMT-67" transform="scale(0.015625)"/>
      </defs>
      <use xlink:href="#ArialMT-50"/>
      <use x="66.699219" xlink:href="#ArialMT-65"/>
      <use x="122.314453" xlink:href="#ArialMT-72"/>
      <use x="155.615234" xlink:href="#ArialMT-74"/>
      <use x="183.398438" xlink:href="#ArialMT-75"/>
      <use x="239.013672" xlink:href="#ArialMT-72"/>
      <use x="272.314453" xlink:href="#ArialMT-62"/>
      <use x="327.929688" xlink:href="#ArialMT-61"/>
      <use x="383.544922" xlink:href="#ArialMT-74"/>
      <use x="411.328125" xlink:href="#ArialMT-69"/>
      <use x="433.544922" xlink:href="#ArialMT-6f"/>
      <use x="489.160156" xlink:href="#ArialMT-6e"/>
      <use x="544.775391" xlink:href="#ArialMT-20"/>
      <use x="572.558594" xlink:href="#ArialMT-73"/>
      <use x="622.558594" xlink:href="#ArialMT-63"/>
      <use x="672.558594" xlink:href="#ArialMT-61"/>
      <use x="728.173828" xlink:href="#ArialMT-6c"/>
      <use x="750.390625" xlink:href="#ArialMT-69"/>
      <use x="772.607422" xlink:href="#ArialMT-6e"/>
      <use x="828.222656" xlink:href="#ArialMT-67"/>
     </g>
    </g>
   </g>
   <g id="matplotlib.axis_2">
    <g id="ytick_1">
     <g id="line2d_7">
      <path clip-path="url(#p3f152a8bf2)" d="M 169.4525 938.094375 
L 1285.4525 938.094375 
" style="fill:none;stroke:#ffffff;stroke-linecap:round;"/>
     </g>
     <g id="text_8">
      <!-- 0.00 -->
      <g style="fill:#262626;" transform="translate(58.755625 956.704687)scale(0.52 -0.52)">
       <use xlink:href="#ArialMT-30"/>
       <use x="55.615234" xlink:href="#ArialMT-2e"/>
       <use x="83.398438" xlink:href="#ArialMT-30"/>
       <use x="139.013672" xlink:href="#ArialMT-30"/>
      </g>
     </g>
    </g>
    <g id="ytick_2">
     <g id="line2d_8">
      <path clip-path="url(#p3f152a8bf2)" d="M 169.4525 811.374375 
L 1285.4525 811.374375 
" style="fill:none;stroke:#ffffff;stroke-linecap:round;"/>
     </g>
     <g id="text_9">
      <!-- 0.50 -->
      <g style="fill:#262626;" transform="translate(58.755625 829.984687)scale(0.52 -0.52)">
       <defs>
        <path d="M 266 1200 
L 856 1250 
Q 922 819 1161 601 
Q 1400 384 1738 384 
Q 2144 384 2425 690 
Q 2706 997 2706 1503 
Q 2706 1984 2436 2262 
Q 2166 2541 1728 2541 
Q 1456 2541 1237 2417 
Q 1019 2294 894 2097 
L 366 2166 
L 809 4519 
L 3088 4519 
L 3088 3981 
L 1259 3981 
L 1013 2750 
Q 1425 3038 1878 3038 
Q 2478 3038 2890 2622 
Q 3303 2206 3303 1553 
Q 3303 931 2941 478 
Q 2500 -78 1738 -78 
Q 1113 -78 717 272 
Q 322 622 266 1200 
z
" id="ArialMT-35" transform="scale(0.015625)"/>
       </defs>
       <use xlink:href="#ArialMT-30"/>
       <use x="55.615234" xlink:href="#ArialMT-2e"/>
       <use x="83.398438" xlink:href="#ArialMT-35"/>
       <use x="139.013672" xlink:href="#ArialMT-30"/>
      </g>
     </g>
    </g>
    <g id="ytick_3">
     <g id="line2d_9">
      <path clip-path="url(#p3f152a8bf2)" d="M 169.4525 684.654375 
L 1285.4525 684.654375 
" style="fill:none;stroke:#ffffff;stroke-linecap:round;"/>
     </g>
     <g id="text_10">
      <!-- 1.00 -->
      <g style="fill:#262626;" transform="translate(58.755625 703.264687)scale(0.52 -0.52)">
       <use xlink:href="#ArialMT-31"/>
       <use x="55.615234" xlink:href="#ArialMT-2e"/>
       <use x="83.398438" xlink:href="#ArialMT-30"/>
       <use x="139.013672" xlink:href="#ArialMT-30"/>
      </g>
     </g>
    </g>
    <g id="ytick_4">
     <g id="line2d_10">
      <path clip-path="url(#p3f152a8bf2)" d="M 169.4525 557.934375 
L 1285.4525 557.934375 
" style="fill:none;stroke:#ffffff;stroke-linecap:round;"/>
     </g>
     <g id="text_11">
      <!-- 1.50 -->
      <g style="fill:#262626;" transform="translate(58.755625 576.544688)scale(0.52 -0.52)">
       <use xlink:href="#ArialMT-31"/>
       <use x="55.615234" xlink:href="#ArialMT-2e"/>
       <use x="83.398438" xlink:href="#ArialMT-35"/>
       <use x="139.013672" xlink:href="#ArialMT-30"/>
      </g>
     </g>
    </g>
    <g id="ytick_5">
     <g id="line2d_11">
      <path clip-path="url(#p3f152a8bf2)" d="M 169.4525 431.214375 
L 1285.4525 431.214375 
" style="fill:none;stroke:#ffffff;stroke-linecap:round;"/>
     </g>
     <g id="text_12">
      <!-- 2.00 -->
      <g style="fill:#262626;" transform="translate(58.755625 449.824687)scale(0.52 -0.52)">
       <use xlink:href="#ArialMT-32"/>
       <use x="55.615234" xlink:href="#ArialMT-2e"/>
       <use x="83.398438" xlink:href="#ArialMT-30"/>
       <use x="139.013672" xlink:href="#ArialMT-30"/>
      </g>
     </g>
    </g>
    <g id="ytick_6">
     <g id="line2d_12">
      <path clip-path="url(#p3f152a8bf2)" d="M 169.4525 304.494375 
L 1285.4525 304.494375 
" style="fill:none;stroke:#ffffff;stroke-linecap:round;"/>
     </g>
     <g id="text_13">
      <!-- 2.50 -->
      <g style="fill:#262626;" transform="translate(58.755625 323.104687)scale(0.52 -0.52)">
       <use xlink:href="#ArialMT-32"/>
       <use x="55.615234" xlink:href="#ArialMT-2e"/>
       <use x="83.398438" xlink:href="#ArialMT-35"/>
       <use x="139.013672" xlink:href="#ArialMT-30"/>
      </g>
     </g>
    </g>
    <g id="ytick_7">
     <g id="line2d_13">
      <path clip-path="url(#p3f152a8bf2)" d="M 169.4525 177.774375 
L 1285.4525 177.774375 
" style="fill:none;stroke:#ffffff;stroke-linecap:round;"/>
     </g>
     <g id="text_14">
      <!-- 3.00 -->
      <g style="fill:#262626;" transform="translate(58.755625 196.384687)scale(0.52 -0.52)">
       <defs>
        <path d="M 269 1209 
L 831 1284 
Q 928 806 1161 595 
Q 1394 384 1728 384 
Q 2125 384 2398 659 
Q 2672 934 2672 1341 
Q 2672 1728 2419 1979 
Q 2166 2231 1775 2231 
Q 1616 2231 1378 2169 
L 1441 2663 
Q 1497 2656 1531 2656 
Q 1891 2656 2178 2843 
Q 2466 3031 2466 3422 
Q 2466 3731 2256 3934 
Q 2047 4138 1716 4138 
Q 1388 4138 1169 3931 
Q 950 3725 888 3313 
L 325 3413 
Q 428 3978 793 4289 
Q 1159 4600 1703 4600 
Q 2078 4600 2393 4439 
Q 2709 4278 2876 4000 
Q 3044 3722 3044 3409 
Q 3044 3113 2884 2869 
Q 2725 2625 2413 2481 
Q 2819 2388 3044 2092 
Q 3269 1797 3269 1353 
Q 3269 753 2831 336 
Q 2394 -81 1725 -81 
Q 1122 -81 723 278 
Q 325 638 269 1209 
z
" id="ArialMT-33" transform="scale(0.015625)"/>
       </defs>
       <use xlink:href="#ArialMT-33"/>
       <use x="55.615234" xlink:href="#ArialMT-2e"/>
       <use x="83.398438" xlink:href="#ArialMT-30"/>
       <use x="139.013672" xlink:href="#ArialMT-30"/>
      </g>
     </g>
    </g>
    <g id="ytick_8">
     <g id="line2d_14">
      <path clip-path="url(#p3f152a8bf2)" d="M 169.4525 51.054375 
L 1285.4525 51.054375 
" style="fill:none;stroke:#ffffff;stroke-linecap:round;"/>
     </g>
     <g id="text_15">
      <!-- 3.50 -->
      <g style="fill:#262626;" transform="translate(58.755625 69.664687)scale(0.52 -0.52)">
       <use xlink:href="#ArialMT-33"/>
       <use x="55.615234" xlink:href="#ArialMT-2e"/>
       <use x="83.398438" xlink:href="#ArialMT-35"/>
       <use x="139.013672" xlink:href="#ArialMT-30"/>
      </g>
     </g>
    </g>
    <g id="text_16">
     <!-- Distance -->
     <g style="fill:#262626;" transform="translate(44.420625 595.726562)rotate(-90)scale(0.52 -0.52)">
      <defs>
       <path d="M 494 0 
L 494 4581 
L 2072 4581 
Q 2606 4581 2888 4516 
Q 3281 4425 3559 4188 
Q 3922 3881 4101 3404 
Q 4281 2928 4281 2316 
Q 4281 1794 4159 1391 
Q 4038 988 3847 723 
Q 3656 459 3429 307 
Q 3203 156 2883 78 
Q 2563 0 2147 0 
L 494 0 
z
M 1100 541 
L 2078 541 
Q 2531 541 2789 625 
Q 3047 709 3200 863 
Q 3416 1078 3536 1442 
Q 3656 1806 3656 2325 
Q 3656 3044 3420 3430 
Q 3184 3816 2847 3947 
Q 2603 4041 2063 4041 
L 1100 4041 
L 1100 541 
z
" id="ArialMT-44" transform="scale(0.015625)"/>
      </defs>
      <use xlink:href="#ArialMT-44"/>
      <use x="72.216797" xlink:href="#ArialMT-69"/>
      <use x="94.433594" xlink:href="#ArialMT-73"/>
      <use x="144.433594" xlink:href="#ArialMT-74"/>
      <use x="172.216797" xlink:href="#ArialMT-61"/>
      <use x="227.832031" xlink:href="#ArialMT-6e"/>
      <use x="283.447266" xlink:href="#ArialMT-63"/>
      <use x="333.447266" xlink:href="#ArialMT-65"/>
     </g>
    </g>
   </g>
   <g id="line2d_15">
    <path clip-path="url(#p3f152a8bf2)" d="M 220.179773 938.094375 
L 230.325227 923.417593 
L 240.470682 911.460973 
L 250.616136 903.592453 
L 260.761591 889.330711 
L 270.907045 858.294097 
L 281.0525 846.403411 
L 291.197955 846.146873 
L 301.343409 829.310139 
L 311.488864 810.390092 
L 321.634318 795.485475 
L 331.779773 774.079055 
L 341.925227 785.423489 
L 352.070682 771.284794 
L 362.216136 761.761681 
L 372.361591 731.693872 
L 382.507045 717.549599 
L 392.6525 723.201737 
L 402.797955 717.67626 
L 412.943409 696.092467 
L 423.088864 690.511854 
L 433.234318 653.819838 
L 443.379773 646.350427 
L 453.525227 651.253912 
L 463.670682 643.134128 
L 473.816136 603.18672 
L 483.961591 584.900323 
L 494.107045 571.632687 
L 504.2525 561.241567 
L 514.397955 566.741739 
L 524.543409 558.615526 
L 534.688864 525.382728 
L 544.834318 524.380356 
L 554.979773 511.331873 
L 565.125227 496.954351 
L 575.270682 495.437317 
L 585.416136 490.687133 
L 595.561591 489.278272 
L 605.707045 497.52823 
L 615.8525 485.629744 
L 625.997955 435.482691 
L 636.143409 425.674171 
L 646.288864 396.810537 
L 656.434318 384.202424 
L 666.579773 373.521454 
L 676.725227 366.148664 
L 686.870682 394.549377 
L 697.016136 381.862932 
L 707.161591 354.11695 
L 717.307045 329.262188 
L 727.4525 352.623255 
L 737.597955 341.641926 
L 747.743409 333.23527 
L 757.888864 317.365759 
L 768.034318 291.817438 
L 778.179773 332.79803 
L 788.325227 274.834331 
L 798.470682 270.010368 
L 808.616136 300.747306 
L 818.761591 247.556568 
L 828.907045 304.416711 
L 839.0525 296.5499 
L 849.197955 224.162174 
L 859.343409 209.895044 
L 869.488864 261.211737 
L 879.634318 265.492448 
L 889.779773 244.254791 
L 899.925227 251.322342 
L 910.070682 228.0389 
L 920.216136 239.431106 
L 930.361591 214.774136 
L 940.507045 210.866195 
L 950.6525 234.370299 
L 960.797955 195.3465 
L 970.943409 206.081354 
L 981.088864 183.932385 
L 991.234318 189.436181 
L 1001.379773 192.065751 
L 1011.525227 186.871487 
L 1021.670682 173.306864 
L 1031.816136 169.051695 
L 1041.961591 156.359716 
L 1052.107045 132.922073 
L 1062.2525 143.306332 
L 1072.397955 132.744315 
L 1082.543409 137.776562 
L 1092.688864 130.343272 
L 1102.834318 121.16956 
L 1112.979773 123.247318 
L 1123.125227 110.936713 
L 1133.270682 112.668654 
L 1143.416136 113.509695 
L 1153.561591 100.984944 
L 1163.707045 109.26404 
L 1173.8525 88.715763 
L 1183.997955 96.267592 
L 1194.143409 87.384547 
L 1204.288864 76.631174 
L 1214.434318 80.772645 
L 1224.579773 83.857373 
L 1234.725227 72.298464 
" style="fill:none;stroke:#e41a1c;stroke-dasharray:4,6.6;stroke-dashoffset:0;stroke-width:4;"/>
   </g>
   <g id="line2d_16">
    <path clip-path="url(#p3f152a8bf2)" d="M 220.179773 938.094375 
L 230.325227 923.11366 
L 240.470682 908.262374 
L 250.616136 893.540517 
L 260.761591 878.948089 
L 270.907045 864.48509 
L 281.0525 850.151521 
L 291.197955 835.947381 
L 301.343409 821.872669 
L 311.488864 807.927388 
L 321.634318 794.111535 
L 331.779773 780.425111 
L 341.925227 766.868117 
L 352.070682 753.440551 
L 362.216136 740.142415 
L 372.361591 726.973708 
L 382.507045 713.93443 
L 392.6525 701.024581 
L 402.797955 688.244162 
L 412.943409 675.593171 
L 423.088864 663.07161 
L 433.234318 650.679478 
L 443.379773 638.416775 
L 453.525227 626.283501 
L 463.670682 614.279657 
L 473.816136 602.405241 
L 483.961591 590.660255 
L 494.107045 579.044698 
L 504.2525 567.55857 
L 514.397955 556.201871 
L 524.543409 544.974602 
L 534.688864 533.876761 
L 544.834318 522.90835 
L 554.979773 512.069368 
L 565.125227 501.359815 
L 575.270682 490.779691 
L 585.416136 480.328996 
L 595.561591 470.00773 
L 605.707045 459.815894 
L 615.8525 449.753487 
L 625.997955 439.820509 
L 636.143409 430.01696 
L 646.288864 420.34284 
L 656.434318 410.798149 
L 666.579773 401.382888 
L 676.725227 392.097056 
L 686.870682 382.940653 
L 697.016136 373.913679 
L 707.161591 365.016134 
L 717.307045 356.248018 
L 727.4525 347.609332 
L 737.597955 339.100074 
L 747.743409 330.720246 
L 757.888864 322.469847 
L 768.034318 314.348877 
L 778.179773 306.357337 
L 788.325227 298.495225 
L 798.470682 290.762543 
L 808.616136 283.15929 
L 818.761591 275.685465 
L 828.907045 268.341071 
L 839.0525 261.126105 
L 849.197955 254.040568 
L 859.343409 247.084461 
L 869.488864 240.257783 
L 879.634318 233.560533 
L 889.779773 226.992713 
L 899.925227 220.554323 
L 910.070682 214.245361 
L 920.216136 208.065829 
L 930.361591 202.015725 
L 940.507045 196.095051 
L 950.6525 190.303806 
L 960.797955 184.64199 
L 970.943409 179.109604 
L 981.088864 173.706646 
L 991.234318 168.433118 
L 1001.379773 163.289018 
L 1011.525227 158.274348 
L 1021.670682 153.389107 
L 1031.816136 148.633296 
L 1041.961591 144.006913 
L 1052.107045 139.50996 
L 1062.2525 135.142435 
L 1072.397955 130.90434 
L 1082.543409 126.795674 
L 1092.688864 122.816438 
L 1102.834318 118.96663 
L 1112.979773 115.246252 
L 1123.125227 111.655302 
L 1133.270682 108.193782 
L 1143.416136 104.861691 
L 1153.561591 101.659029 
L 1163.707045 98.585797 
L 1173.8525 95.641993 
L 1183.997955 92.827619 
L 1194.143409 90.142673 
L 1204.288864 87.587157 
L 1214.434318 85.161071 
L 1224.579773 82.864413 
L 1234.725227 80.697184 
" style="fill:none;stroke:#e41a1c;stroke-linecap:round;stroke-width:3;"/>
   </g>
   <g id="line2d_17">
    <path clip-path="url(#p3f152a8bf2)" d="M 220.179773 938.094375 
L 230.325227 932.237975 
L 240.470682 920.062495 
L 250.616136 904.307275 
L 260.761591 894.757812 
L 270.907045 875.602855 
L 281.0525 877.949019 
L 291.197955 854.132557 
L 301.343409 841.531555 
L 311.488864 816.928548 
L 321.634318 795.889693 
L 331.779773 769.843435 
L 341.925227 764.505247 
L 352.070682 766.593018 
L 362.216136 746.566461 
L 372.361591 716.643422 
L 382.507045 713.515914 
L 392.6525 703.640651 
L 402.797955 717.772287 
L 412.943409 707.429541 
L 423.088864 700.028529 
L 433.234318 677.243002 
L 443.379773 680.203333 
L 453.525227 678.220413 
L 463.670682 633.772502 
L 473.816136 624.572205 
L 483.961591 616.832265 
L 494.107045 584.082558 
L 504.2525 575.83243 
L 514.397955 589.733833 
L 524.543409 562.234746 
L 534.688864 567.440659 
L 544.834318 555.486553 
L 554.979773 559.554382 
L 565.125227 547.187343 
L 575.270682 542.736635 
L 585.416136 572.70877 
L 595.561591 535.980119 
L 605.707045 577.580772 
L 615.8525 549.88304 
L 625.997955 544.968525 
L 636.143409 531.339473 
L 646.288864 537.046887 
L 656.434318 529.494812 
L 666.579773 492.8836 
L 676.725227 496.249657 
L 686.870682 505.591279 
L 697.016136 523.117634 
L 707.161591 480.938963 
L 717.307045 487.536526 
L 727.4525 498.253277 
L 737.597955 493.512247 
L 747.743409 476.084565 
L 757.888864 480.844746 
L 768.034318 456.413565 
L 778.179773 447.440219 
L 788.325227 451.82946 
L 798.470682 456.697107 
L 808.616136 431.712594 
L 818.761591 440.394546 
L 828.907045 439.029978 
L 839.0525 419.614145 
L 849.197955 407.835465 
L 859.343409 413.822145 
L 869.488864 414.36216 
L 879.634318 397.363951 
L 889.779773 393.921607 
L 899.925227 397.707126 
L 910.070682 388.916359 
L 920.216136 386.006091 
L 930.361591 371.670715 
L 940.507045 359.13029 
L 950.6525 347.474723 
L 960.797955 349.240695 
L 970.943409 341.666129 
L 981.088864 337.012467 
L 991.234318 334.058513 
L 1001.379773 326.066444 
L 1011.525227 332.998511 
L 1021.670682 316.17936 
L 1031.816136 336.690977 
L 1041.961591 329.655246 
L 1052.107045 323.94544 
L 1062.2525 299.86675 
L 1072.397955 314.748111 
L 1082.543409 292.237953 
L 1092.688864 290.567838 
L 1102.834318 279.673542 
L 1112.979773 276.29636 
L 1123.125227 279.201685 
L 1133.270682 272.305308 
L 1143.416136 252.69171 
L 1153.561591 245.875196 
L 1163.707045 244.073948 
L 1173.8525 237.952722 
L 1183.997955 230.218882 
L 1194.143409 215.525264 
L 1204.288864 210.93965 
L 1214.434318 198.600385 
L 1224.579773 191.774805 
L 1234.725227 204.074833 
" style="fill:none;stroke:#377eb8;stroke-dasharray:4,6.6;stroke-dashoffset:0;stroke-width:4;"/>
   </g>
   <g id="line2d_18">
    <path clip-path="url(#p3f152a8bf2)" d="M 220.179773 938.094375 
L 230.325227 927.828313 
L 240.470682 917.635854 
L 250.616136 907.516996 
L 260.761591 897.471741 
L 270.907045 887.500088 
L 281.0525 877.602038 
L 291.197955 867.777589 
L 301.343409 858.026743 
L 311.488864 848.349499 
L 321.634318 838.745857 
L 331.779773 829.215817 
L 341.925227 819.75938 
L 352.070682 810.376544 
L 362.216136 801.067311 
L 372.361591 791.83168 
L 382.507045 782.669652 
L 392.6525 773.581225 
L 402.797955 764.566401 
L 412.943409 755.625179 
L 423.088864 746.757559 
L 433.234318 737.963541 
L 443.379773 729.243126 
L 453.525227 720.596313 
L 463.670682 712.023102 
L 473.816136 703.523493 
L 483.961591 695.097486 
L 494.107045 686.745082 
L 504.2525 678.46628 
L 514.397955 670.26108 
L 524.543409 662.129482 
L 534.688864 654.071487 
L 544.834318 646.087093 
L 554.979773 638.176302 
L 565.125227 630.339113 
L 575.270682 622.575526 
L 585.416136 614.885542 
L 595.561591 607.26916 
L 605.707045 599.726379 
L 615.8525 592.257202 
L 625.997955 584.861626 
L 636.143409 577.539652 
L 646.288864 570.291281 
L 656.434318 563.116512 
L 666.579773 556.015345 
L 676.725227 548.987781 
L 686.870682 542.033818 
L 697.016136 535.153458 
L 707.161591 528.3467 
L 717.307045 521.613544 
L 727.4525 514.95399 
L 737.597955 508.368039 
L 747.743409 501.85569 
L 757.888864 495.416943 
L 768.034318 489.051798 
L 778.179773 482.760255 
L 788.325227 476.542315 
L 798.470682 470.397977 
L 808.616136 464.327241 
L 818.761591 458.330107 
L 828.907045 452.406575 
L 839.0525 446.556646 
L 849.197955 440.780319 
L 859.343409 435.077594 
L 869.488864 429.448471 
L 879.634318 423.892951 
L 889.779773 418.411032 
L 899.925227 413.002716 
L 910.070682 407.668002 
L 920.216136 402.406891 
L 930.361591 397.219381 
L 940.507045 392.105474 
L 950.6525 387.065169 
L 960.797955 382.098466 
L 970.943409 377.205365 
L 981.088864 372.385867 
L 991.234318 367.639971 
L 1001.379773 362.967677 
L 1011.525227 358.368985 
L 1021.670682 353.843895 
L 1031.816136 349.392408 
L 1041.961591 345.014523 
L 1052.107045 340.71024 
L 1062.2525 336.479559 
L 1072.397955 332.32248 
L 1082.543409 328.239004 
L 1092.688864 324.22913 
L 1102.834318 320.292858 
L 1112.979773 316.430188 
L 1123.125227 312.64112 
L 1133.270682 308.925655 
L 1143.416136 305.283792 
L 1153.561591 301.715531 
L 1163.707045 298.220872 
L 1173.8525 294.799816 
L 1183.997955 291.452361 
L 1194.143409 288.178509 
L 1204.288864 284.978259 
L 1214.434318 281.851612 
L 1224.579773 278.798566 
L 1234.725227 275.819123 
" style="fill:none;stroke:#377eb8;stroke-linecap:round;stroke-width:3;"/>
   </g>
   <g id="line2d_19">
    <path clip-path="url(#p3f152a8bf2)" d="M 220.179773 938.094375 
L 230.325227 929.708844 
L 240.470682 928.53894 
L 250.616136 916.322851 
L 260.761591 907.361552 
L 270.907045 900.737823 
L 281.0525 904.245931 
L 291.197955 891.864863 
L 301.343409 891.010151 
L 311.488864 873.18555 
L 321.634318 869.987287 
L 331.779773 855.945952 
L 341.925227 845.786556 
L 352.070682 841.631513 
L 362.216136 820.918908 
L 372.361591 816.098079 
L 382.507045 809.232004 
L 392.6525 791.410834 
L 402.797955 786.149441 
L 412.943409 771.568466 
L 423.088864 790.283126 
L 433.234318 779.534377 
L 443.379773 769.554253 
L 453.525227 769.635214 
L 463.670682 774.994939 
L 473.816136 767.827453 
L 483.961591 750.642704 
L 494.107045 757.525067 
L 504.2525 736.996828 
L 514.397955 730.294563 
L 524.543409 737.931093 
L 534.688864 725.864187 
L 544.834318 721.114698 
L 554.979773 722.369804 
L 565.125227 711.846363 
L 575.270682 694.635411 
L 585.416136 689.861859 
L 595.561591 685.655117 
L 605.707045 670.173049 
L 615.8525 685.507079 
L 625.997955 677.100052 
L 636.143409 677.065064 
L 646.288864 664.71073 
L 656.434318 672.969119 
L 666.579773 666.659655 
L 676.725227 669.774867 
L 686.870682 655.329503 
L 697.016136 657.472089 
L 707.161591 648.345458 
L 717.307045 661.958092 
L 727.4525 647.227574 
L 737.597955 646.08928 
L 747.743409 632.642656 
L 757.888864 630.744057 
L 768.034318 640.734187 
L 778.179773 609.595606 
L 788.325227 620.956457 
L 798.470682 629.177236 
L 808.616136 616.276346 
L 818.761591 611.98324 
L 828.907045 603.844833 
L 839.0525 607.139173 
L 849.197955 602.687436 
L 859.343409 589.874496 
L 869.488864 591.143023 
L 879.634318 588.51365 
L 889.779773 566.320634 
L 899.925227 565.067777 
L 910.070682 560.351249 
L 920.216136 571.88386 
L 930.361591 550.351845 
L 940.507045 548.318946 
L 950.6525 567.526686 
L 960.797955 530.0327 
L 970.943409 535.280096 
L 981.088864 534.971351 
L 991.234318 511.542455 
L 1001.379773 524.286526 
L 1011.525227 513.643656 
L 1021.670682 497.021545 
L 1031.816136 493.726485 
L 1041.961591 484.721647 
L 1052.107045 479.92941 
L 1062.2525 475.860695 
L 1072.397955 470.79364 
L 1082.543409 468.288076 
L 1092.688864 459.201836 
L 1102.834318 483.122655 
L 1112.979773 455.735252 
L 1123.125227 450.645344 
L 1133.270682 471.318537 
L 1143.416136 462.61895 
L 1153.561591 452.036234 
L 1163.707045 457.357605 
L 1173.8525 449.568153 
L 1183.997955 426.07709 
L 1194.143409 424.542528 
L 1204.288864 414.32303 
L 1214.434318 416.258594 
L 1224.579773 424.919036 
L 1234.725227 423.060244 
" style="fill:none;stroke:#4daf4a;stroke-dasharray:4,6.6;stroke-dashoffset:0;stroke-width:4;"/>
   </g>
   <g id="line2d_20">
    <path clip-path="url(#p3f152a8bf2)" d="M 220.179773 938.094375 
L 230.325227 931.841622 
L 240.470682 925.614805 
L 250.616136 919.413923 
L 260.761591 913.238976 
L 270.907045 907.089964 
L 281.0525 900.966888 
L 291.197955 894.869746 
L 301.343409 888.79854 
L 311.488864 882.75327 
L 321.634318 876.733934 
L 331.779773 870.740534 
L 341.925227 864.77307 
L 352.070682 858.83154 
L 362.216136 852.915946 
L 372.361591 847.026287 
L 382.507045 841.162563 
L 392.6525 835.324774 
L 402.797955 829.512921 
L 412.943409 823.727003 
L 423.088864 817.96702 
L 433.234318 812.232973 
L 443.379773 806.52486 
L 453.525227 800.842683 
L 463.670682 795.186442 
L 473.816136 789.556135 
L 483.961591 783.951764 
L 494.107045 778.373328 
L 504.2525 772.820828 
L 514.397955 767.294262 
L 524.543409 761.793632 
L 534.688864 756.318937 
L 544.834318 750.870177 
L 554.979773 745.447353 
L 565.125227 740.050464 
L 575.270682 734.67951 
L 585.416136 729.334492 
L 595.561591 724.015408 
L 605.707045 718.72226 
L 615.8525 713.455047 
L 625.997955 708.21377 
L 636.143409 702.998428 
L 646.288864 697.809021 
L 656.434318 692.645549 
L 666.579773 687.508012 
L 676.725227 682.396411 
L 686.870682 677.310745 
L 697.016136 672.251015 
L 707.161591 667.217219 
L 717.307045 662.209359 
L 727.4525 657.227434 
L 737.597955 652.271444 
L 747.743409 647.34139 
L 757.888864 642.437271 
L 768.034318 637.559087 
L 778.179773 632.706838 
L 788.325227 627.880525 
L 798.470682 623.080147 
L 808.616136 618.305704 
L 818.761591 613.557197 
L 828.907045 608.834624 
L 839.0525 604.137987 
L 849.197955 599.467286 
L 859.343409 594.822519 
L 869.488864 590.203688 
L 879.634318 585.610792 
L 889.779773 581.043831 
L 899.925227 576.502806 
L 910.070682 571.987716 
L 920.216136 567.498561 
L 930.361591 563.035341 
L 940.507045 558.598057 
L 950.6525 554.186707 
L 960.797955 549.801293 
L 970.943409 545.441815 
L 981.088864 541.108271 
L 991.234318 536.800663 
L 1001.379773 532.518991 
L 1011.525227 528.263253 
L 1021.670682 524.033451 
L 1031.816136 519.829584 
L 1041.961591 515.651652 
L 1052.107045 511.499655 
L 1062.2525 507.373594 
L 1072.397955 503.273468 
L 1082.543409 499.199277 
L 1092.688864 495.151022 
L 1102.834318 491.128702 
L 1112.979773 487.132317 
L 1123.125227 483.161867 
L 1133.270682 479.217352 
L 1143.416136 475.298773 
L 1153.561591 471.406129 
L 1163.707045 467.539421 
L 1173.8525 463.698647 
L 1183.997955 459.883809 
L 1194.143409 456.094906 
L 1204.288864 452.331939 
L 1214.434318 448.594906 
L 1224.579773 444.883809 
L 1234.725227 441.198647 
" style="fill:none;stroke:#4daf4a;stroke-linecap:round;stroke-width:3;"/>
   </g>
   <g id="line2d_21">
    <path clip-path="url(#p3f152a8bf2)" d="M 220.179773 938.094375 
L 230.325227 937.787176 
L 240.470682 928.589716 
L 250.616136 925.160857 
L 260.761591 922.747597 
L 270.907045 926.862358 
L 281.0525 921.552248 
L 291.197955 921.621059 
L 301.343409 917.784996 
L 311.488864 914.863268 
L 321.634318 914.158599 
L 331.779773 905.700361 
L 341.925227 899.210876 
L 352.070682 883.072386 
L 362.216136 875.713876 
L 372.361591 909.262023 
L 382.507045 898.537001 
L 392.6525 893.606547 
L 402.797955 893.980691 
L 412.943409 889.068801 
L 423.088864 888.95487 
L 433.234318 880.865506 
L 443.379773 883.454413 
L 453.525227 879.457564 
L 463.670682 873.674387 
L 473.816136 878.680143 
L 483.961591 877.589951 
L 494.107045 873.630457 
L 504.2525 870.56406 
L 514.397955 869.961377 
L 524.543409 861.016518 
L 534.688864 863.220617 
L 544.834318 872.252607 
L 554.979773 869.699498 
L 565.125227 874.476163 
L 575.270682 867.16388 
L 585.416136 868.562062 
L 595.561591 868.553733 
L 605.707045 871.996101 
L 615.8525 867.817236 
L 625.997955 863.298399 
L 636.143409 857.411436 
L 646.288864 855.662533 
L 656.434318 850.982135 
L 666.579773 850.823502 
L 676.725227 848.179385 
L 686.870682 885.732346 
L 697.016136 888.964783 
L 707.161591 886.855324 
L 717.307045 888.708412 
L 727.4525 889.590599 
L 737.597955 887.370593 
L 747.743409 895.464882 
L 757.888864 893.722103 
L 768.034318 898.570259 
L 778.179773 905.760877 
L 788.325227 903.17307 
L 798.470682 896.847049 
L 808.616136 897.028485 
L 818.761591 892.524667 
L 828.907045 890.922541 
L 839.0525 894.070516 
L 849.197955 893.599181 
L 859.343409 896.738919 
L 869.488864 895.8484 
L 879.634318 895.730541 
L 889.779773 896.58239 
L 899.925227 897.985013 
L 910.070682 895.456598 
L 920.216136 897.94548 
L 930.361591 899.29202 
L 940.507045 901.743692 
L 950.6525 899.884622 
L 960.797955 895.002484 
L 970.943409 889.916823 
L 981.088864 892.844192 
L 991.234318 901.764353 
L 1001.379773 898.788744 
L 1011.525227 915.0814 
L 1021.670682 913.12438 
L 1031.816136 915.643897 
L 1041.961591 928.210286 
L 1052.107045 915.783474 
L 1062.2525 916.721269 
L 1072.397955 912.456515 
L 1082.543409 909.624739 
L 1092.688864 906.858224 
L 1102.834318 899.647518 
L 1112.979773 907.854246 
L 1123.125227 907.311963 
L 1133.270682 900.800878 
L 1143.416136 928.285325 
L 1153.561591 898.864604 
L 1163.707045 891.736886 
L 1173.8525 886.596084 
L 1183.997955 885.980733 
L 1194.143409 880.908891 
L 1204.288864 884.089299 
L 1214.434318 916.998402 
L 1224.579773 913.439451 
L 1234.725227 909.93698 
" style="fill:none;stroke:#984ea3;stroke-dasharray:4,6.6;stroke-dashoffset:0;stroke-width:4;"/>
   </g>
   <g id="line2d_22">
    <path clip-path="url(#p3f152a8bf2)" d="M 220.179773 938.094375 
L 230.325227 936.597874 
L 240.470682 935.132898 
L 250.616136 933.699445 
L 260.761591 932.297517 
L 270.907045 930.927114 
L 281.0525 929.588234 
L 291.197955 928.280879 
L 301.343409 927.005048 
L 311.488864 925.760741 
L 321.634318 924.547959 
L 331.779773 923.3667 
L 341.925227 922.216967 
L 352.070682 921.098757 
L 362.216136 920.012072 
L 372.361591 918.95691 
L 382.507045 917.933274 
L 392.6525 916.941161 
L 402.797955 915.980573 
L 412.943409 915.051509 
L 423.088864 914.153969 
L 433.234318 913.287953 
L 443.379773 912.453462 
L 453.525227 911.650495 
L 463.670682 910.879052 
L 473.816136 910.139134 
L 483.961591 909.43074 
L 494.107045 908.75387 
L 504.2525 908.108524 
L 514.397955 907.494703 
L 524.543409 906.912406 
L 534.688864 906.361633 
L 544.834318 905.842384 
L 554.979773 905.35466 
L 565.125227 904.89846 
L 575.270682 904.473784 
L 585.416136 904.080632 
L 595.561591 903.719005 
L 605.707045 903.388902 
L 615.8525 903.090323 
L 625.997955 902.823269 
L 636.143409 902.587739 
L 646.288864 902.383733 
L 656.434318 902.211251 
L 666.579773 902.070294 
L 676.725227 901.96086 
L 686.870682 901.882952 
L 697.016136 901.836567 
L 707.161591 901.821707 
L 717.307045 901.83837 
L 727.4525 901.886559 
L 737.597955 901.966271 
L 747.743409 902.077508 
L 757.888864 902.220269 
L 768.034318 902.394554 
L 778.179773 902.600364 
L 788.325227 902.837697 
L 798.470682 903.106555 
L 808.616136 903.406938 
L 818.761591 903.738844 
L 828.907045 904.102275 
L 839.0525 904.49723 
L 849.197955 904.923709 
L 859.343409 905.381713 
L 869.488864 905.871241 
L 879.634318 906.392293 
L 889.779773 906.94487 
L 899.925227 907.52897 
L 910.070682 908.144595 
L 920.216136 908.791744 
L 930.361591 909.470418 
L 940.507045 910.180616 
L 950.6525 910.922338 
L 960.797955 911.695584 
L 970.943409 912.500355 
L 981.088864 913.336649 
L 991.234318 914.204468 
L 1001.379773 915.103812 
L 1011.525227 916.034679 
L 1021.670682 916.997071 
L 1031.816136 917.990987 
L 1041.961591 919.016428 
L 1052.107045 920.073392 
L 1062.2525 921.161881 
L 1072.397955 922.281895 
L 1082.543409 923.433432 
L 1092.688864 924.616494 
L 1102.834318 925.83108 
L 1112.979773 927.07719 
L 1123.125227 928.354825 
L 1133.270682 929.663983 
L 1143.416136 931.004666 
L 1153.561591 932.376874 
L 1163.707045 933.780605 
L 1173.8525 935.215861 
L 1183.997955 936.682641 
L 1194.143409 938.180946 
L 1204.288864 939.710774 
L 1214.434318 941.272127 
L 1224.579773 942.865004 
L 1234.725227 944.489406 
" style="fill:none;stroke:#984ea3;stroke-linecap:round;stroke-width:3;"/>
   </g>
   <g id="line2d_23">
    <path clip-path="url(#p3f152a8bf2)" d="M 220.179773 938.094375 
L 230.325227 940.489015 
L 240.470682 936.22096 
L 250.616136 932.818833 
L 260.761591 929.612727 
L 270.907045 926.218823 
L 281.0525 922.537354 
L 291.197955 910.84953 
L 301.343409 912.974776 
L 311.488864 908.575058 
L 321.634318 901.041882 
L 331.779773 894.5484 
L 341.925227 888.316045 
L 352.070682 884.171694 
L 362.216136 872.144202 
L 372.361591 876.974113 
L 382.507045 865.03898 
L 392.6525 866.066428 
L 402.797955 868.283385 
L 412.943409 862.567208 
L 423.088864 878.315347 
L 433.234318 875.870891 
L 443.379773 871.981137 
L 453.525227 873.366731 
L 463.670682 871.07164 
L 473.816136 875.915399 
L 483.961591 869.430985 
L 494.107045 867.935184 
L 504.2525 867.663243 
L 514.397955 855.514616 
L 524.543409 848.70263 
L 534.688864 850.613913 
L 544.834318 837.579984 
L 554.979773 835.430703 
L 565.125227 830.379421 
L 575.270682 818.647608 
L 585.416136 823.635914 
L 595.561591 846.188629 
L 605.707045 850.393408 
L 615.8525 853.68213 
L 625.997955 861.385123 
L 636.143409 859.657886 
L 646.288864 861.123555 
L 656.434318 858.034658 
L 666.579773 858.172224 
L 676.725227 884.288416 
L 686.870682 878.09884 
L 697.016136 877.753302 
L 707.161591 869.05977 
L 717.307045 865.49042 
L 727.4525 865.1756 
L 737.597955 857.963676 
L 747.743409 860.793808 
L 757.888864 853.809351 
L 768.034318 851.550497 
L 778.179773 861.531659 
L 788.325227 859.056358 
L 798.470682 867.546878 
L 808.616136 863.52007 
L 818.761591 854.206105 
L 828.907045 856.224421 
L 839.0525 852.284499 
L 849.197955 855.098281 
L 859.343409 847.653804 
L 869.488864 856.231492 
L 879.634318 855.442117 
L 889.779773 860.420931 
L 899.925227 861.264997 
L 910.070682 853.913342 
L 920.216136 847.853442 
L 930.361591 848.891887 
L 940.507045 851.778177 
L 950.6525 855.056052 
L 960.797955 847.802227 
L 970.943409 853.642207 
L 981.088864 846.542617 
L 991.234318 846.85827 
L 1001.379773 848.463446 
L 1011.525227 847.945299 
L 1021.670682 834.121087 
L 1031.816136 828.576804 
L 1041.961591 830.462939 
L 1052.107045 825.676137 
L 1062.2525 824.846015 
L 1072.397955 826.809958 
L 1082.543409 811.312416 
L 1092.688864 824.737056 
L 1102.834318 822.508677 
L 1112.979773 822.464674 
L 1123.125227 849.892873 
L 1133.270682 842.074267 
L 1143.416136 817.464832 
L 1153.561591 822.242248 
L 1163.707045 823.034783 
L 1173.8525 824.602127 
L 1183.997955 825.14172 
L 1194.143409 811.102306 
L 1204.288864 811.201701 
L 1214.434318 803.781763 
L 1224.579773 798.548757 
L 1234.725227 790.171281 
" style="fill:none;stroke:#ff7f00;stroke-dasharray:4,6.6;stroke-dashoffset:0;stroke-width:4;"/>
   </g>
   <g id="line2d_24">
    <path clip-path="url(#p3f152a8bf2)" d="M 220.179773 938.094375 
L 230.325227 936.689963 
L 240.470682 935.296354 
L 250.616136 933.913546 
L 260.761591 932.54154 
L 270.907045 931.180336 
L 281.0525 929.829934 
L 291.197955 928.490333 
L 301.343409 927.161535 
L 311.488864 925.843538 
L 321.634318 924.536344 
L 331.779773 923.239951 
L 341.925227 921.95436 
L 352.070682 920.679571 
L 362.216136 919.415584 
L 372.361591 918.162399 
L 382.507045 916.920016 
L 392.6525 915.688434 
L 402.797955 914.467655 
L 412.943409 913.257677 
L 423.088864 912.058501 
L 433.234318 910.870127 
L 443.379773 909.692556 
L 453.525227 908.525785 
L 463.670682 907.369817 
L 473.816136 906.224651 
L 483.961591 905.090286 
L 494.107045 903.966724 
L 504.2525 902.853963 
L 514.397955 901.752005 
L 524.543409 900.660848 
L 534.688864 899.580493 
L 544.834318 898.51094 
L 554.979773 897.452188 
L 565.125227 896.404239 
L 575.270682 895.367092 
L 585.416136 894.340746 
L 595.561591 893.325202 
L 605.707045 892.320461 
L 615.8525 891.326521 
L 625.997955 890.343383 
L 636.143409 889.371047 
L 646.288864 888.409512 
L 656.434318 887.45878 
L 666.579773 886.518849 
L 676.725227 885.589721 
L 686.870682 884.671394 
L 697.016136 883.763869 
L 707.161591 882.867147 
L 717.307045 881.981225 
L 727.4525 881.106106 
L 737.597955 880.241789 
L 747.743409 879.388274 
L 757.888864 878.54556 
L 768.034318 877.713649 
L 778.179773 876.892539 
L 788.325227 876.082231 
L 798.470682 875.282725 
L 808.616136 874.494021 
L 818.761591 873.716119 
L 828.907045 872.949019 
L 839.0525 872.19272 
L 849.197955 871.447224 
L 859.343409 870.712529 
L 869.488864 869.988637 
L 879.634318 869.275546 
L 889.779773 868.573257 
L 899.925227 867.88177 
L 910.070682 867.201085 
L 920.216136 866.531201 
L 930.361591 865.87212 
L 940.507045 865.22384 
L 950.6525 864.586363 
L 960.797955 863.959687 
L 970.943409 863.343813 
L 981.088864 862.738741 
L 991.234318 862.144471 
L 1001.379773 861.561003 
L 1011.525227 860.988337 
L 1021.670682 860.426472 
L 1031.816136 859.87541 
L 1041.961591 859.335149 
L 1052.107045 858.805691 
L 1062.2525 858.287034 
L 1072.397955 857.779179 
L 1082.543409 857.282126 
L 1092.688864 856.795874 
L 1102.834318 856.320425 
L 1112.979773 855.855778 
L 1123.125227 855.401932 
L 1133.270682 854.958889 
L 1143.416136 854.526647 
L 1153.561591 854.105207 
L 1163.707045 853.694569 
L 1173.8525 853.294733 
L 1183.997955 852.905699 
L 1194.143409 852.527466 
L 1204.288864 852.160036 
L 1214.434318 851.803407 
L 1224.579773 851.457581 
L 1234.725227 851.122556 
" style="fill:none;stroke:#ff7f00;stroke-linecap:round;stroke-width:3;"/>
   </g>
   <g id="line2d_25">
    <path clip-path="url(#p3f152a8bf2)" d="M 220.179773 938.094375 
L 230.325227 937.843171 
L 240.470682 933.308471 
L 250.616136 925.289761 
L 260.761591 931.565909 
L 270.907045 917.143283 
L 281.0525 917.343862 
L 291.197955 913.80859 
L 301.343409 894.37051 
L 311.488864 893.950605 
L 321.634318 889.042327 
L 331.779773 888.961484 
L 341.925227 867.171133 
L 352.070682 882.64029 
L 362.216136 880.90316 
L 372.361591 858.807681 
L 382.507045 868.244975 
L 392.6525 866.306294 
L 402.797955 864.342597 
L 412.943409 843.481791 
L 423.088864 843.322774 
L 433.234318 851.211288 
L 443.379773 849.496945 
L 453.525227 851.01044 
L 463.670682 844.902882 
L 473.816136 845.261944 
L 483.961591 835.138715 
L 494.107045 833.199312 
L 504.2525 835.012753 
L 514.397955 821.173573 
L 524.543409 812.394942 
L 534.688864 826.005776 
L 544.834318 838.432826 
L 554.979773 828.344893 
L 565.125227 817.517893 
L 575.270682 814.274824 
L 585.416136 806.389828 
L 595.561591 806.809288 
L 605.707045 807.782532 
L 615.8525 797.652033 
L 625.997955 803.345559 
L 636.143409 802.828462 
L 646.288864 802.997866 
L 656.434318 808.846535 
L 666.579773 809.591507 
L 676.725227 806.293916 
L 686.870682 808.873613 
L 697.016136 808.950245 
L 707.161591 812.18299 
L 717.307045 809.401605 
L 727.4525 803.636985 
L 737.597955 801.427057 
L 747.743409 803.304587 
L 757.888864 808.965787 
L 768.034318 786.929275 
L 778.179773 828.85327 
L 788.325227 829.002639 
L 798.470682 841.948093 
L 808.616136 844.587282 
L 818.761591 840.85275 
L 828.907045 837.041166 
L 839.0525 838.060614 
L 849.197955 812.203718 
L 859.343409 823.513471 
L 869.488864 825.907195 
L 879.634318 822.096815 
L 889.779773 823.86917 
L 899.925227 830.802034 
L 910.070682 828.550819 
L 920.216136 828.715601 
L 930.361591 829.73188 
L 940.507045 837.357739 
L 950.6525 833.697848 
L 960.797955 838.684619 
L 970.943409 817.998821 
L 981.088864 824.326552 
L 991.234318 827.79679 
L 1001.379773 823.180555 
L 1011.525227 802.694487 
L 1021.670682 803.372826 
L 1031.816136 805.019997 
L 1041.961591 801.638094 
L 1052.107045 807.511604 
L 1062.2525 802.605545 
L 1072.397955 801.023816 
L 1082.543409 797.963464 
L 1092.688864 784.905129 
L 1102.834318 788.360916 
L 1112.979773 766.67098 
L 1123.125227 756.593965 
L 1133.270682 775.464797 
L 1143.416136 764.213297 
L 1153.561591 756.549357 
L 1163.707045 762.06433 
L 1173.8525 758.93265 
L 1183.997955 774.301739 
L 1194.143409 744.239882 
L 1204.288864 751.757506 
L 1214.434318 739.044126 
L 1224.579773 740.189803 
L 1234.725227 744.743641 
" style="fill:none;stroke:#ffff33;stroke-dasharray:4,6.6;stroke-dashoffset:0;stroke-width:4;"/>
   </g>
   <g id="line2d_26">
    <path clip-path="url(#p3f152a8bf2)" d="M 220.179773 938.094375 
L 230.325227 935.87466 
L 240.470682 933.674068 
L 250.616136 931.4926 
L 260.761591 929.330256 
L 270.907045 927.187035 
L 281.0525 925.062938 
L 291.197955 922.957965 
L 301.343409 920.872116 
L 311.488864 918.805391 
L 321.634318 916.757789 
L 331.779773 914.729311 
L 341.925227 912.719956 
L 352.070682 910.729726 
L 362.216136 908.758619 
L 372.361591 906.806636 
L 382.507045 904.873776 
L 392.6525 902.96004 
L 402.797955 901.065428 
L 412.943409 899.18994 
L 423.088864 897.333576 
L 433.234318 895.496335 
L 443.379773 893.678218 
L 453.525227 891.879225 
L 463.670682 890.099355 
L 473.816136 888.338609 
L 483.961591 886.596987 
L 494.107045 884.874489 
L 504.2525 883.171114 
L 514.397955 881.486863 
L 524.543409 879.821736 
L 534.688864 878.175732 
L 544.834318 876.548853 
L 554.979773 874.941097 
L 565.125227 873.352464 
L 575.270682 871.782956 
L 585.416136 870.232571 
L 595.561591 868.70131 
L 605.707045 867.189173 
L 615.8525 865.696159 
L 625.997955 864.222269 
L 636.143409 862.767503 
L 646.288864 861.331861 
L 656.434318 859.915342 
L 666.579773 858.517947 
L 676.725227 857.139676 
L 686.870682 855.780528 
L 697.016136 854.440505 
L 707.161591 853.119605 
L 717.307045 851.817828 
L 727.4525 850.535176 
L 737.597955 849.271647 
L 747.743409 848.027242 
L 757.888864 846.80196 
L 768.034318 845.595803 
L 778.179773 844.408769 
L 788.325227 843.240859 
L 798.470682 842.092072 
L 808.616136 840.96241 
L 818.761591 839.851871 
L 828.907045 838.760455 
L 839.0525 837.688164 
L 849.197955 836.634996 
L 859.343409 835.600952 
L 869.488864 834.586032 
L 879.634318 833.590235 
L 889.779773 832.613562 
L 899.925227 831.656013 
L 910.070682 830.717588 
L 920.216136 829.798286 
L 930.361591 828.898108 
L 940.507045 828.017054 
L 950.6525 827.155124 
L 960.797955 826.312317 
L 970.943409 825.488634 
L 981.088864 824.684075 
L 991.234318 823.898639 
L 1001.379773 823.132327 
L 1011.525227 822.385139 
L 1021.670682 821.657075 
L 1031.816136 820.948134 
L 1041.961591 820.258317 
L 1052.107045 819.587624 
L 1062.2525 818.936055 
L 1072.397955 818.303609 
L 1082.543409 817.690287 
L 1092.688864 817.096089 
L 1102.834318 816.521015 
L 1112.979773 815.965064 
L 1123.125227 815.428237 
L 1133.270682 814.910534 
L 1143.416136 814.411954 
L 1153.561591 813.932498 
L 1163.707045 813.472166 
L 1173.8525 813.030958 
L 1183.997955 812.608873 
L 1194.143409 812.205912 
L 1204.288864 811.822075 
L 1214.434318 811.457362 
L 1224.579773 811.111772 
L 1234.725227 810.785306 
" style="fill:none;stroke:#ffff33;stroke-linecap:round;stroke-width:3;"/>
   </g>
   <g id="line2d_27">
    <path clip-path="url(#p3f152a8bf2)" d="M 220.179773 938.094375 
L 230.325227 939.291452 
L 240.470682 931.738039 
L 250.616136 915.178536 
L 260.761591 897.342268 
L 270.907045 898.003629 
L 281.0525 883.121132 
L 291.197955 866.811979 
L 301.343409 854.793441 
L 311.488864 838.937442 
L 321.634318 817.861727 
L 331.779773 809.377128 
L 341.925227 798.397121 
L 352.070682 798.656014 
L 362.216136 805.138296 
L 372.361591 777.481793 
L 382.507045 769.185339 
L 392.6525 759.449759 
L 402.797955 744.865501 
L 412.943409 730.478802 
L 423.088864 724.157031 
L 433.234318 702.955392 
L 443.379773 717.441611 
L 453.525227 691.400835 
L 463.670682 704.409679 
L 473.816136 692.184366 
L 483.961591 710.334168 
L 494.107045 699.021202 
L 504.2525 707.902512 
L 514.397955 675.501232 
L 524.543409 682.211015 
L 534.688864 677.17193 
L 544.834318 681.269418 
L 554.979773 664.739301 
L 565.125227 657.043458 
L 575.270682 652.541523 
L 585.416136 663.271949 
L 595.561591 672.385924 
L 605.707045 671.331828 
L 615.8525 663.665759 
L 625.997955 663.597754 
L 636.143409 653.360931 
L 646.288864 650.150334 
L 656.434318 636.516701 
L 666.579773 633.0141 
L 676.725227 629.183141 
L 686.870682 637.45333 
L 697.016136 636.530014 
L 707.161591 642.904167 
L 717.307045 607.769834 
L 727.4525 605.672498 
L 737.597955 605.81559 
L 747.743409 583.396675 
L 757.888864 602.119805 
L 768.034318 584.29809 
L 778.179773 572.835144 
L 788.325227 571.729347 
L 798.470682 570.980814 
L 808.616136 565.895061 
L 818.761591 553.248039 
L 828.907045 542.063459 
L 839.0525 532.296221 
L 849.197955 533.947188 
L 859.343409 545.393947 
L 869.488864 530.144334 
L 879.634318 549.372327 
L 889.779773 547.187555 
L 899.925227 531.133837 
L 910.070682 538.047064 
L 920.216136 510.352156 
L 930.361591 508.913542 
L 940.507045 510.993577 
L 950.6525 498.972632 
L 960.797955 499.810393 
L 970.943409 499.178086 
L 981.088864 490.609571 
L 991.234318 485.84135 
L 1001.379773 464.315273 
L 1011.525227 465.928419 
L 1021.670682 472.769175 
L 1031.816136 459.456287 
L 1041.961591 460.306257 
L 1052.107045 447.056562 
L 1062.2525 446.823164 
L 1072.397955 441.331335 
L 1082.543409 454.127103 
L 1092.688864 438.637718 
L 1102.834318 445.602089 
L 1112.979773 484.188825 
L 1123.125227 476.790696 
L 1133.270682 462.357937 
L 1143.416136 453.455709 
L 1153.561591 459.690838 
L 1163.707045 412.209428 
L 1173.8525 397.308861 
L 1183.997955 418.662176 
L 1194.143409 416.272709 
L 1204.288864 390.407905 
L 1214.434318 386.472901 
L 1224.579773 384.724706 
L 1234.725227 369.62019 
" style="fill:none;stroke:#a65628;stroke-dasharray:4,6.6;stroke-dashoffset:0;stroke-width:4;"/>
   </g>
   <g id="line2d_28">
    <path clip-path="url(#p3f152a8bf2)" d="M 220.179773 938.094375 
L 230.325227 930.780883 
L 240.470682 923.515957 
L 250.616136 916.299598 
L 260.761591 909.131804 
L 270.907045 902.012577 
L 281.0525 894.941916 
L 291.197955 887.919821 
L 301.343409 880.946292 
L 311.488864 874.021329 
L 321.634318 867.144932 
L 331.779773 860.317102 
L 341.925227 853.537837 
L 352.070682 846.807139 
L 362.216136 840.125007 
L 372.361591 833.491441 
L 382.507045 826.906441 
L 392.6525 820.370008 
L 402.797955 813.88214 
L 412.943409 807.442839 
L 423.088864 801.052104 
L 433.234318 794.709935 
L 443.379773 788.416332 
L 453.525227 782.171295 
L 463.670682 775.974824 
L 473.816136 769.82692 
L 483.961591 763.727581 
L 494.107045 757.676809 
L 504.2525 751.674603 
L 514.397955 745.720963 
L 524.543409 739.815889 
L 534.688864 733.959382 
L 544.834318 728.15144 
L 554.979773 722.392065 
L 565.125227 716.681256 
L 575.270682 711.019013 
L 585.416136 705.405336 
L 595.561591 699.840225 
L 605.707045 694.32368 
L 615.8525 688.855702 
L 625.997955 683.436289 
L 636.143409 678.065443 
L 646.288864 672.743163 
L 656.434318 667.469449 
L 666.579773 662.244301 
L 676.725227 657.06772 
L 686.870682 651.939704 
L 697.016136 646.860255 
L 707.161591 641.829372 
L 717.307045 636.847055 
L 727.4525 631.913304 
L 737.597955 627.028119 
L 747.743409 622.1915 
L 757.888864 617.403448 
L 768.034318 612.663961 
L 778.179773 607.973041 
L 788.325227 603.330687 
L 798.470682 598.736899 
L 808.616136 594.191677 
L 818.761591 589.695022 
L 828.907045 585.246932 
L 839.0525 580.847409 
L 849.197955 576.496452 
L 859.343409 572.194061 
L 869.488864 567.940236 
L 879.634318 563.734977 
L 889.779773 559.578284 
L 899.925227 555.470158 
L 910.070682 551.410597 
L 920.216136 547.399603 
L 930.361591 543.437175 
L 940.507045 539.523313 
L 950.6525 535.658017 
L 960.797955 531.841288 
L 970.943409 528.073124 
L 981.088864 524.353527 
L 991.234318 520.682496 
L 1001.379773 517.060031 
L 1011.525227 513.486132 
L 1021.670682 509.960799 
L 1031.816136 506.484032 
L 1041.961591 503.055832 
L 1052.107045 499.676197 
L 1062.2525 496.345129 
L 1072.397955 493.062627 
L 1082.543409 489.828691 
L 1092.688864 486.643321 
L 1102.834318 483.506518 
L 1112.979773 480.41828 
L 1123.125227 477.378609 
L 1133.270682 474.387504 
L 1143.416136 471.444965 
L 1153.561591 468.550992 
L 1163.707045 465.705585 
L 1173.8525 462.908744 
L 1183.997955 460.16047 
L 1194.143409 457.460761 
L 1204.288864 454.809619 
L 1214.434318 452.207043 
L 1224.579773 449.653033 
L 1234.725227 447.147589 
" style="fill:none;stroke:#a65628;stroke-linecap:round;stroke-width:3;"/>
   </g>
   <g id="line2d_29">
    <path clip-path="url(#p3f152a8bf2)" d="M 220.179773 938.094375 
L 230.325227 933.964462 
L 240.470682 926.956424 
L 250.616136 922.666571 
L 260.761591 922.410341 
L 270.907045 916.789016 
L 281.0525 915.360593 
L 291.197955 917.826702 
L 301.343409 910.764058 
L 311.488864 902.529808 
L 321.634318 896.520879 
L 331.779773 903.674224 
L 341.925227 903.39589 
L 352.070682 890.997565 
L 362.216136 884.396329 
L 372.361591 874.267466 
L 382.507045 862.709368 
L 392.6525 854.653481 
L 402.797955 874.274171 
L 412.943409 876.193536 
L 423.088864 868.62772 
L 433.234318 858.211517 
L 443.379773 851.04799 
L 453.525227 841.680871 
L 463.670682 843.817437 
L 473.816136 848.849594 
L 483.961591 842.351403 
L 494.107045 838.024907 
L 504.2525 838.786428 
L 514.397955 841.340161 
L 524.543409 842.593138 
L 534.688864 836.473362 
L 544.834318 843.443131 
L 554.979773 837.895041 
L 565.125227 832.129906 
L 575.270682 826.751869 
L 585.416136 827.371969 
L 595.561591 822.943173 
L 605.707045 824.857585 
L 615.8525 822.095005 
L 625.997955 816.19271 
L 636.143409 807.957986 
L 646.288864 800.238768 
L 656.434318 806.127459 
L 666.579773 820.257972 
L 676.725227 816.11662 
L 686.870682 822.182448 
L 697.016136 817.231483 
L 707.161591 809.064228 
L 717.307045 816.914515 
L 727.4525 814.011874 
L 737.597955 812.130325 
L 747.743409 814.577549 
L 757.888864 809.76695 
L 768.034318 808.889718 
L 778.179773 810.56025 
L 788.325227 809.059916 
L 798.470682 845.368601 
L 808.616136 846.186396 
L 818.761591 844.789255 
L 828.907045 835.53714 
L 839.0525 836.517412 
L 849.197955 843.310833 
L 859.343409 831.338071 
L 869.488864 834.295307 
L 879.634318 829.136734 
L 889.779773 816.43121 
L 899.925227 823.511361 
L 910.070682 815.660408 
L 920.216136 822.969657 
L 930.361591 820.85615 
L 940.507045 818.317726 
L 950.6525 813.245385 
L 960.797955 808.034576 
L 970.943409 816.574914 
L 981.088864 825.570593 
L 991.234318 816.638144 
L 1001.379773 812.147386 
L 1011.525227 820.695845 
L 1021.670682 820.646481 
L 1031.816136 820.197769 
L 1041.961591 819.346984 
L 1052.107045 820.032991 
L 1062.2525 818.38025 
L 1072.397955 830.892314 
L 1082.543409 828.922794 
L 1092.688864 820.843969 
L 1102.834318 818.654239 
L 1112.979773 814.68524 
L 1123.125227 793.797304 
L 1133.270682 798.803727 
L 1143.416136 801.784266 
L 1153.561591 795.7224 
L 1163.707045 783.824936 
L 1173.8525 783.161134 
L 1183.997955 804.616632 
L 1194.143409 795.959868 
L 1204.288864 799.650779 
L 1214.434318 800.842135 
L 1224.579773 772.018605 
L 1234.725227 782.04637 
" style="fill:none;stroke:#f781bf;stroke-dasharray:4,6.6;stroke-dashoffset:0;stroke-width:4;"/>
   </g>
   <g id="line2d_30">
    <path clip-path="url(#p3f152a8bf2)" d="M 220.179773 938.094375 
L 230.325227 935.255921 
L 240.470682 932.45345 
L 250.616136 929.686963 
L 260.761591 926.956459 
L 270.907045 924.26194 
L 281.0525 921.603403 
L 291.197955 918.980851 
L 301.343409 916.394282 
L 311.488864 913.843697 
L 321.634318 911.329095 
L 331.779773 908.850477 
L 341.925227 906.407842 
L 352.070682 904.001192 
L 362.216136 901.630524 
L 372.361591 899.295841 
L 382.507045 896.997141 
L 392.6525 894.734425 
L 402.797955 892.507692 
L 412.943409 890.316943 
L 423.088864 888.162178 
L 433.234318 886.043396 
L 443.379773 883.960598 
L 453.525227 881.913783 
L 463.670682 879.902952 
L 473.816136 877.928105 
L 483.961591 875.989241 
L 494.107045 874.086361 
L 504.2525 872.219465 
L 514.397955 870.388552 
L 524.543409 868.593623 
L 534.688864 866.834678 
L 544.834318 865.111716 
L 554.979773 863.424738 
L 565.125227 861.773743 
L 575.270682 860.158732 
L 585.416136 858.579705 
L 595.561591 857.036661 
L 605.707045 855.529601 
L 615.8525 854.058525 
L 625.997955 852.623432 
L 636.143409 851.224323 
L 646.288864 849.861197 
L 656.434318 848.534055 
L 666.579773 847.242897 
L 676.725227 845.987722 
L 686.870682 844.768531 
L 697.016136 843.585324 
L 707.161591 842.4381 
L 717.307045 841.32686 
L 727.4525 840.251603 
L 737.597955 839.21233 
L 747.743409 838.209041 
L 757.888864 837.241735 
L 768.034318 836.310413 
L 778.179773 835.415075 
L 788.325227 834.55572 
L 798.470682 833.732349 
L 808.616136 832.944962 
L 818.761591 832.193558 
L 828.907045 831.478137 
L 839.0525 830.798701 
L 849.197955 830.155248 
L 859.343409 829.547779 
L 869.488864 828.976293 
L 879.634318 828.440791 
L 889.779773 827.941272 
L 899.925227 827.477737 
L 910.070682 827.050186 
L 920.216136 826.658619 
L 930.361591 826.303035 
L 940.507045 825.983434 
L 950.6525 825.699818 
L 960.797955 825.452185 
L 970.943409 825.240535 
L 981.088864 825.064869 
L 991.234318 824.925187 
L 1001.379773 824.821489 
L 1011.525227 824.753774 
L 1021.670682 824.722043 
L 1031.816136 824.726295 
L 1041.961591 824.766531 
L 1052.107045 824.84275 
L 1062.2525 824.954954 
L 1072.397955 825.103141 
L 1082.543409 825.287311 
L 1092.688864 825.507465 
L 1102.834318 825.763603 
L 1112.979773 826.055724 
L 1123.125227 826.383829 
L 1133.270682 826.747918 
L 1143.416136 827.14799 
L 1153.561591 827.584046 
L 1163.707045 828.056086 
L 1173.8525 828.564109 
L 1183.997955 829.108116 
L 1194.143409 829.688106 
L 1204.288864 830.30408 
L 1214.434318 830.956038 
L 1224.579773 831.643979 
L 1234.725227 832.367904 
" style="fill:none;stroke:#f781bf;stroke-linecap:round;stroke-width:3;"/>
   </g>
   <g id="patch_3">
    <path d="M 169.4525 938.094375 
L 169.4525 51.054375 
" style="fill:none;stroke:#ffffff;stroke-linecap:square;stroke-linejoin:miter;stroke-width:1.25;"/>
   </g>
   <g id="patch_4">
    <path d="M 1285.4525 938.094375 
L 1285.4525 51.054375 
" style="fill:none;stroke:#ffffff;stroke-linecap:square;stroke-linejoin:miter;stroke-width:1.25;"/>
   </g>
   <g id="patch_5">
    <path d="M 169.4525 938.094375 
L 1285.4525 938.094375 
" style="fill:none;stroke:#ffffff;stroke-linecap:square;stroke-linejoin:miter;stroke-width:1.25;"/>
   </g>
   <g id="patch_6">
    <path d="M 169.4525 51.054375 
L 1285.4525 51.054375 
" style="fill:none;stroke:#ffffff;stroke-linecap:square;stroke-linejoin:miter;stroke-width:1.25;"/>
   </g>
   <g id="text_17">
    <!-- UWS Distances across healthy axis -->
    <g style="fill:#262626;" transform="translate(317.103437 45.054375)scale(0.52 -0.52)">
     <defs>
      <path d="M 3500 4581 
L 4106 4581 
L 4106 1934 
Q 4106 1244 3950 837 
Q 3794 431 3386 176 
Q 2978 -78 2316 -78 
Q 1672 -78 1262 144 
Q 853 366 678 786 
Q 503 1206 503 1934 
L 503 4581 
L 1109 4581 
L 1109 1938 
Q 1109 1341 1220 1058 
Q 1331 775 1601 622 
Q 1872 469 2263 469 
Q 2931 469 3215 772 
Q 3500 1075 3500 1938 
L 3500 4581 
z
" id="ArialMT-55" transform="scale(0.015625)"/>
      <path d="M 1294 0 
L 78 4581 
L 700 4581 
L 1397 1578 
Q 1509 1106 1591 641 
Q 1766 1375 1797 1488 
L 2669 4581 
L 3400 4581 
L 4056 2263 
Q 4303 1400 4413 641 
Q 4500 1075 4641 1638 
L 5359 4581 
L 5969 4581 
L 4713 0 
L 4128 0 
L 3163 3491 
Q 3041 3928 3019 4028 
Q 2947 3713 2884 3491 
L 1913 0 
L 1294 0 
z
" id="ArialMT-57" transform="scale(0.015625)"/>
      <path d="M 288 1472 
L 859 1522 
Q 900 1178 1048 958 
Q 1197 738 1509 602 
Q 1822 466 2213 466 
Q 2559 466 2825 569 
Q 3091 672 3220 851 
Q 3350 1031 3350 1244 
Q 3350 1459 3225 1620 
Q 3100 1781 2813 1891 
Q 2628 1963 1997 2114 
Q 1366 2266 1113 2400 
Q 784 2572 623 2826 
Q 463 3081 463 3397 
Q 463 3744 659 4045 
Q 856 4347 1234 4503 
Q 1613 4659 2075 4659 
Q 2584 4659 2973 4495 
Q 3363 4331 3572 4012 
Q 3781 3694 3797 3291 
L 3216 3247 
Q 3169 3681 2898 3903 
Q 2628 4125 2100 4125 
Q 1550 4125 1298 3923 
Q 1047 3722 1047 3438 
Q 1047 3191 1225 3031 
Q 1400 2872 2139 2705 
Q 2878 2538 3153 2413 
Q 3553 2228 3743 1945 
Q 3934 1663 3934 1294 
Q 3934 928 3725 604 
Q 3516 281 3123 101 
Q 2731 -78 2241 -78 
Q 1619 -78 1198 103 
Q 778 284 539 648 
Q 300 1013 288 1472 
z
" id="ArialMT-53" transform="scale(0.015625)"/>
      <path d="M 422 0 
L 422 4581 
L 984 4581 
L 984 2938 
Q 1378 3394 1978 3394 
Q 2347 3394 2619 3248 
Q 2891 3103 3008 2847 
Q 3125 2591 3125 2103 
L 3125 0 
L 2563 0 
L 2563 2103 
Q 2563 2525 2380 2717 
Q 2197 2909 1863 2909 
Q 1613 2909 1392 2779 
Q 1172 2650 1078 2428 
Q 984 2206 984 1816 
L 984 0 
L 422 0 
z
" id="ArialMT-68" transform="scale(0.015625)"/>
      <path d="M 397 -1278 
L 334 -750 
Q 519 -800 656 -800 
Q 844 -800 956 -737 
Q 1069 -675 1141 -563 
Q 1194 -478 1313 -144 
Q 1328 -97 1363 -6 
L 103 3319 
L 709 3319 
L 1400 1397 
Q 1534 1031 1641 628 
Q 1738 1016 1872 1384 
L 2581 3319 
L 3144 3319 
L 1881 -56 
Q 1678 -603 1566 -809 
Q 1416 -1088 1222 -1217 
Q 1028 -1347 759 -1347 
Q 597 -1347 397 -1278 
z
" id="ArialMT-79" transform="scale(0.015625)"/>
      <path d="M 47 0 
L 1259 1725 
L 138 3319 
L 841 3319 
L 1350 2541 
Q 1494 2319 1581 2169 
Q 1719 2375 1834 2534 
L 2394 3319 
L 3066 3319 
L 1919 1756 
L 3153 0 
L 2463 0 
L 1781 1031 
L 1600 1309 
L 728 0 
L 47 0 
z
" id="ArialMT-78" transform="scale(0.015625)"/>
     </defs>
     <use xlink:href="#ArialMT-55"/>
     <use x="72.216797" xlink:href="#ArialMT-57"/>
     <use x="166.601562" xlink:href="#ArialMT-53"/>
     <use x="233.300781" xlink:href="#ArialMT-20"/>
     <use x="261.083984" xlink:href="#ArialMT-44"/>
     <use x="333.300781" xlink:href="#ArialMT-69"/>
     <use x="355.517578" xlink:href="#ArialMT-73"/>
     <use x="405.517578" xlink:href="#ArialMT-74"/>
     <use x="433.300781" xlink:href="#ArialMT-61"/>
     <use x="488.916016" xlink:href="#ArialMT-6e"/>
     <use x="544.53125" xlink:href="#ArialMT-63"/>
     <use x="594.53125" xlink:href="#ArialMT-65"/>
     <use x="650.146484" xlink:href="#ArialMT-73"/>
     <use x="700.146484" xlink:href="#ArialMT-20"/>
     <use x="727.929688" xlink:href="#ArialMT-61"/>
     <use x="783.544922" xlink:href="#ArialMT-63"/>
     <use x="833.544922" xlink:href="#ArialMT-72"/>
     <use x="866.845703" xlink:href="#ArialMT-6f"/>
     <use x="922.460938" xlink:href="#ArialMT-73"/>
     <use x="972.460938" xlink:href="#ArialMT-73"/>
     <use x="1022.460938" xlink:href="#ArialMT-20"/>
     <use x="1050.244141" xlink:href="#ArialMT-68"/>
     <use x="1105.859375" xlink:href="#ArialMT-65"/>
     <use x="1161.474609" xlink:href="#ArialMT-61"/>
     <use x="1217.089844" xlink:href="#ArialMT-6c"/>
     <use x="1239.306641" xlink:href="#ArialMT-74"/>
     <use x="1267.089844" xlink:href="#ArialMT-68"/>
     <use x="1322.705078" xlink:href="#ArialMT-79"/>
     <use x="1372.705078" xlink:href="#ArialMT-20"/>
     <use x="1400.488281" xlink:href="#ArialMT-61"/>
     <use x="1456.103516" xlink:href="#ArialMT-78"/>
     <use x="1506.103516" xlink:href="#ArialMT-69"/>
     <use x="1528.320312" xlink:href="#ArialMT-73"/>
    </g>
   </g>
  </g>
  <g id="axes_2">
   <g id="patch_7">
    <path d="M 204.445833 296.647708 
L 639.685833 296.647708 
L 639.685833 66.017308 
L 204.445833 66.017308 
z
" style="fill:#eaeaf2;"/>
   </g>
   <g id="matplotlib.axis_3">
    <g id="xtick_7">
     <g id="line2d_31">
      <path clip-path="url(#p76460fd458)" d="M 204.445833 296.647708 
L 204.445833 66.017308 
" style="fill:none;stroke:#ffffff;stroke-linecap:round;"/>
     </g>
     <g id="text_18">
      <!-- 0 -->
      <g style="fill:#262626;" transform="translate(191.192266 334.266615)scale(0.476667 -0.476667)">
       <use xlink:href="#ArialMT-30"/>
      </g>
     </g>
    </g>
    <g id="xtick_8">
     <g id="line2d_32">
      <path clip-path="url(#p76460fd458)" d="M 366.78097 296.647708 
L 366.78097 66.017308 
" style="fill:none;stroke:#ffffff;stroke-linecap:round;"/>
     </g>
    </g>
    <g id="xtick_9">
     <g id="line2d_33">
      <path clip-path="url(#p76460fd458)" d="M 529.116107 296.647708 
L 529.116107 66.017308 
" style="fill:none;stroke:#ffffff;stroke-linecap:round;"/>
     </g>
     <g id="text_19">
      <!-- 2 -->
      <g style="fill:#262626;" transform="translate(515.862539 334.266615)scale(0.476667 -0.476667)">
       <use xlink:href="#ArialMT-32"/>
      </g>
     </g>
    </g>
    <g id="text_20">
     <!-- PE -->
     <g style="fill:#262626;" transform="translate(396.051615 375.655833)scale(0.39 -0.39)">
      <defs>
       <path d="M 506 0 
L 506 4581 
L 3819 4581 
L 3819 4041 
L 1113 4041 
L 1113 2638 
L 3647 2638 
L 3647 2100 
L 1113 2100 
L 1113 541 
L 3925 541 
L 3925 0 
L 506 0 
z
" id="ArialMT-45" transform="scale(0.015625)"/>
      </defs>
      <use xlink:href="#ArialMT-50"/>
      <use x="66.699219" xlink:href="#ArialMT-45"/>
     </g>
    </g>
   </g>
   <g id="matplotlib.axis_4">
    <g id="ytick_9">
     <g id="line2d_34">
      <path clip-path="url(#p76460fd458)" d="M 204.445833 275.412508 
L 639.685833 275.412508 
" style="fill:none;stroke:#ffffff;stroke-linecap:round;"/>
     </g>
    </g>
    <g id="ytick_10">
     <g id="line2d_35">
      <path clip-path="url(#p76460fd458)" d="M 204.445833 248.532508 
L 639.685833 248.532508 
" style="fill:none;stroke:#ffffff;stroke-linecap:round;"/>
     </g>
    </g>
    <g id="ytick_11">
     <g id="line2d_36">
      <path clip-path="url(#p76460fd458)" d="M 204.445833 221.652508 
L 639.685833 221.652508 
" style="fill:none;stroke:#ffffff;stroke-linecap:round;"/>
     </g>
    </g>
    <g id="ytick_12">
     <g id="line2d_37">
      <path clip-path="url(#p76460fd458)" d="M 204.445833 194.772508 
L 639.685833 194.772508 
" style="fill:none;stroke:#ffffff;stroke-linecap:round;"/>
     </g>
    </g>
    <g id="ytick_13">
     <g id="line2d_38">
      <path clip-path="url(#p76460fd458)" d="M 204.445833 167.892508 
L 639.685833 167.892508 
" style="fill:none;stroke:#ffffff;stroke-linecap:round;"/>
     </g>
    </g>
    <g id="ytick_14">
     <g id="line2d_39">
      <path clip-path="url(#p76460fd458)" d="M 204.445833 141.012508 
L 639.685833 141.012508 
" style="fill:none;stroke:#ffffff;stroke-linecap:round;"/>
     </g>
    </g>
    <g id="ytick_15">
     <g id="line2d_40">
      <path clip-path="url(#p76460fd458)" d="M 204.445833 114.132508 
L 639.685833 114.132508 
" style="fill:none;stroke:#ffffff;stroke-linecap:round;"/>
     </g>
    </g>
    <g id="ytick_16">
     <g id="line2d_41">
      <path clip-path="url(#p76460fd458)" d="M 204.445833 87.252508 
L 639.685833 87.252508 
" style="fill:none;stroke:#ffffff;stroke-linecap:round;"/>
     </g>
    </g>
   </g>
   <g id="patch_8">
    <path clip-path="url(#p76460fd458)" d="M 204.445833 286.164508 
L 618.960119 286.164508 
L 618.960119 264.660508 
L 204.445833 264.660508 
z
" style="fill:#e41a1c;stroke:#ffffff;stroke-linejoin:miter;"/>
   </g>
   <g id="patch_9">
    <path clip-path="url(#p76460fd458)" d="M 204.445833 259.284508 
L 440.166799 259.284508 
L 440.166799 237.780508 
L 204.445833 237.780508 
z
" style="fill:#377eb8;stroke:#ffffff;stroke-linejoin:miter;"/>
   </g>
   <g id="patch_10">
    <path clip-path="url(#p76460fd458)" d="M 204.445833 232.404508 
L 287.506997 232.404508 
L 287.506997 210.900508 
L 204.445833 210.900508 
z
" style="fill:#4daf4a;stroke:#ffffff;stroke-linejoin:miter;"/>
   </g>
   <g id="patch_11">
    <path clip-path="url(#p76460fd458)" d="M 204.445833 205.524508 
L 305.406533 205.524508 
L 305.406533 184.020508 
L 204.445833 184.020508 
z
" style="fill:#984ea3;stroke:#ffffff;stroke-linejoin:miter;"/>
   </g>
   <g id="patch_12">
    <path clip-path="url(#p76460fd458)" d="M 204.445833 178.644508 
L 239.04033 178.644508 
L 239.04033 157.140508 
L 204.445833 157.140508 
z
" style="fill:#ff7f00;stroke:#ffffff;stroke-linejoin:miter;"/>
   </g>
   <g id="patch_13">
    <path clip-path="url(#p76460fd458)" d="M 204.445833 151.764508 
L 265.692156 151.764508 
L 265.692156 130.260508 
L 204.445833 130.260508 
z
" style="fill:#ffff33;stroke:#ffffff;stroke-linejoin:miter;"/>
   </g>
   <g id="patch_14">
    <path clip-path="url(#p76460fd458)" d="M 204.445833 124.884508 
L 359.985437 124.884508 
L 359.985437 103.380508 
L 204.445833 103.380508 
z
" style="fill:#a65628;stroke:#ffffff;stroke-linejoin:miter;"/>
   </g>
   <g id="patch_15">
    <path clip-path="url(#p76460fd458)" d="M 204.445833 98.004508 
L 319.688245 98.004508 
L 319.688245 76.500508 
L 204.445833 76.500508 
z
" style="fill:#f781bf;stroke:#ffffff;stroke-linejoin:miter;"/>
   </g>
   <g id="patch_16">
    <path d="M 639.685833 296.647708 
L 639.685833 66.017308 
" style="fill:none;stroke:#ffffff;stroke-linecap:square;stroke-linejoin:miter;stroke-width:1.25;"/>
   </g>
   <g id="patch_17">
    <path d="M 204.445833 296.647708 
L 639.685833 296.647708 
" style="fill:none;stroke:#ffffff;stroke-linecap:square;stroke-linejoin:miter;stroke-width:1.25;"/>
   </g>
  </g>
 </g>
 <defs>
  <clipPath id="p3f152a8bf2">
   <rect height="887.04" width="1116" x="169.4525" y="51.054375"/>
  </clipPath>
  <clipPath id="p76460fd458">
   <rect height="230.6304" width="435.24" x="204.445833" y="66.017308"/>
  </clipPath>
 </defs>
</svg>
