<?xml version="1.0" encoding="utf-8" standalone="no"?>
<!DOCTYPE svg PUBLIC "-//W3C//DTD SVG 1.1//EN"
  "http://www.w3.org/Graphics/SVG/1.1/DTD/svg11.dtd">
<svg height="1459.7235pt" version="1.1" viewBox="0 0 786.05225 1459.7235" width="786.05225pt" xmlns="http://www.w3.org/2000/svg" xmlns:xlink="http://www.w3.org/1999/xlink">
 <metadata>
  <rdf:RDF xmlns:cc="http://creativecommons.org/ns#" xmlns:dc="http://purl.org/dc/elements/1.1/" xmlns:rdf="http://www.w3.org/1999/02/22-rdf-syntax-ns#">
   <cc:Work>
    <dc:type rdf:resource="http://purl.org/dc/dcmitype/StillImage"/>
    <dc:date>2026-10-06T12:43:44.535362</dc:date>
    <dc:format>image/svg+xml</dc:format>
    <dc:creator>
     <cc:Agent>
      <dc:title>Matplotlib v3.4.3, https://matplotlib.org/</dc:title>
     </cc:Agent>
    </dc:creator>
   </cc:Work>
  </rdf:RDF>
 </metadata>
 <defs>
  <style type="text/css">*{stroke-linecap:butt;stroke-linejoin:round;}</style>
 </defs>
 <g id="figure_1">
  <g id="patch_1">
   <path d="M 0 1459.7235 
L 786.05225 1459.7235 
L 786.05225 0 
L 0 0 
z
" style="fill:#ffffff;"/>
  </g>
  <g id="axes_1">
   <g id="patch_2">
    <path d="M 126.249 1371.714 
L 769.065 1371.714 
L 769.065 41.154 
L 126.249 41.154 
z
" style="fill:#ffffff;"/>
   </g>
   <g id="matplotlib.axis_1">
    <g id="xtick_1">
     <g id="text_1">
      <text style="font-family:Arial;font-size:35.2px;font-stretch:normal;font-style:normal;font-weight:normal;text-anchor:middle;" transform="rotate(-0, 126.249, 1406.4095)" x="126.249" y="1406.4095">0</text>
     </g>
    </g>
    <g id="xtick_2">
     <g id="text_2">
      <text style="font-family:Arial;font-size:35.2px;font-stretch:normal;font-style:normal;font-weight:normal;text-anchor:middle;" transform="rotate(-0, 286.953, 1406.4095)" x="286.953" y="1406.4095">1</text>
     </g>
    </g>
    <g id="xtick_3">
     <g id="text_3">
      <text style="font-family:Arial;font-size:35.2px;font-stretch:normal;font-style:normal;font-weight:normal;text-anchor:middle;" transform="rotate(-0, 447.657, 1406.4095)" x="447.657" y="1406.4095">2</text>
     </g>
    </g>
    <g id="xtick_4">
     <g id="text_4">
      <text style="font-family:Arial;font-size:35.2px;font-stretch:normal;font-style:normal;font-weight:normal;text-anchor:middle;" transform="rotate(-0, 608.361, 1406.4095)" x="608.361" y="1406.4095">3</text>
     </g>
    </g>
    <g id="xtick_5">
     <g id="text_5">
      <text style="font-family:Arial;font-size:35.2px;font-stretch:normal;font-style:normal;font-weight:normal;text-anchor:middle;" transform="rotate(-0, 769.065, 1406.4095)" x="769.065" y="1406.4095">4</text>
     </g>
    </g>
    <g id="text_6">
     <text style="font-family:Arial;font-size:38.4px;font-stretch:normal;font-style:normal;font-weight:normal;text-anchor:middle;" transform="rotate(-0, 447.657, 1444.8915)" x="447.657" y="1444.8915">Distances</text>
    </g>
   </g>
   <g id="matplotlib.axis_2">
    <g id="ytick_1">
     <g id="text_7">
      <text style="font-family:Arial;font-size:35.2px;font-stretch:normal;font-style:normal;font-weight:normal;text-anchor:end;" transform="rotate(-0, 116.749, 136.91175)" x="116.749" y="136.91175">5HT2A</text>
     </g>
    </g>
    <g id="ytick_2">
     <g id="text_8">
      <text style="font-family:Arial;font-size:35.2px;font-stretch:normal;font-style:normal;font-weight:normal;text-anchor:end;" transform="rotate(-0, 116.749, 303.23175)" x="116.749" y="303.23175">5HT1A</text>
     </g>
    </g>
    <g id="ytick_3">
     <g id="text_9">
      <text style="font-family:Arial;font-size:35.2px;font-stretch:normal;font-style:normal;font-weight:normal;text-anchor:end;" transform="rotate(-0, 116.749, 469.55175)" x="116.749" y="469.55175">5HT6</text>
     </g>
    </g>
    <g id="ytick_4">
     <g id="text_10">
      <text style="font-family:Arial;font-size:35.2px;font-stretch:normal;font-style:normal;font-weight:normal;text-anchor:end;" transform="rotate(-0, 116.749, 635.87175)" x="116.749" y="635.87175">D2</text>
     </g>
    </g>
    <g id="ytick_5">
     <g id="text_11">
      <text style="font-family:Arial;font-size:35.2px;font-stretch:normal;font-style:normal;font-weight:normal;text-anchor:end;" transform="rotate(-0, 116.749, 802.19175)" x="116.749" y="802.19175">D1</text>
     </g>
    </g>
    <g id="ytick_6">
     <g id="text_12">
      <text style="font-family:Arial;font-size:35.2px;font-stretch:normal;font-style:normal;font-weight:normal;text-anchor:end;" transform="rotate(-0, 116.749, 968.51175)" x="116.749" y="968.51175">H3</text>
     </g>
    </g>
    <g id="ytick_7">
     <g id="text_13">
      <text style="font-family:Arial;font-size:35.2px;font-stretch:normal;font-style:normal;font-weight:normal;text-anchor:end;" transform="rotate(-0, 116.749, 1134.83175)" x="116.749" y="1134.83175">MU</text>
     </g>
    </g>
    <g id="ytick_8">
     <g id="text_14">
      <text style="font-family:Arial;font-size:35.2px;font-stretch:normal;font-style:normal;font-weight:normal;text-anchor:end;" transform="rotate(-0, 116.749, 1301.15175)" x="116.749" y="1301.15175">DAT</text>
     </g>
    </g>
   </g>
   <g id="PolyCollection_1">
    <defs>
     <path d="M 550.074806 -1334.799952 
L 550.074806 -1336.019048 
L 551.24163 -1336.202151 
L 552.408454 -1336.424362 
L 553.575278 -1336.688911 
L 554.742101 -1336.997779 
L 555.908925 -1337.351289 
L 557.075749 -1337.747766 
L 558.242573 -1338.183323 
L 559.409396 -1338.651821 
L 560.57622 -1339.145068 
L 561.743044 -1339.653277 
L 562.909867 -1340.165794 
L 564.076691 -1340.672083 
L 565.243515 -1341.162886 
L 566.410339 -1341.631486 
L 567.577162 -1342.074947 
L 568.743986 -1342.495184 
L 569.91081 -1342.899728 
L 571.077634 -1343.302059 
L 572.244457 -1343.721403 
L 573.411281 -1344.181942 
L 574.578105 -1344.711437 
L 575.744929 -1345.339335 
L 576.911752 -1346.094475 
L 578.078576 -1347.002581 
L 579.2454 -1348.083749 
L 580.412223 -1349.350167 
L 581.579047 -1350.804292 
L 582.745871 -1352.437685 
L 583.912695 -1354.230642 
L 585.079518 -1356.152701 
L 586.246342 -1358.164011 
L 587.413166 -1360.217458 
L 588.57999 -1362.261391 
L 589.746813 -1364.242687 
L 590.913637 -1366.109895 
L 592.080461 -1367.816163 
L 593.247285 -1369.321683 
L 594.414108 -1370.595456 
L 595.580932 -1371.616237 
L 596.747756 -1372.372619 
L 597.914579 -1372.862316 
L 599.081403 -1373.090793 
L 600.248227 -1373.069432 
L 601.415051 -1372.813512 
L 602.581874 -1372.340234 
L 603.748698 -1371.667026 
L 604.915522 -1370.810314 
L 606.082346 -1369.784847 
L 607.249169 -1368.603608 
L 608.415993 -1367.278238 
L 609.582817 -1365.819858 
L 610.749641 -1364.240109 
L 611.916464 -1362.55221 
L 613.083288 -1360.771859 
L 614.250112 -1358.917823 
L 615.416935 -1357.012112 
L 616.583759 -1355.079698 
L 617.750583 -1353.147821 
L 618.917407 -1351.244945 
L 620.08423 -1349.399499 
L 621.251054 -1347.638542 
L 622.417878 -1345.986502 
L 623.584702 -1344.464105 
L 624.751525 -1343.087588 
L 625.918349 -1341.868244 
L 627.085173 -1340.812301 
L 628.251997 -1339.921099 
L 629.41882 -1339.191508 
L 630.585644 -1338.616496 
L 631.752468 -1338.185786 
L 632.919291 -1337.886512 
L 634.086115 -1337.703844 
L 635.252939 -1337.621542 
L 636.419763 -1337.622438 
L 637.586586 -1337.688871 
L 638.75341 -1337.803081 
L 639.920234 -1337.947613 
L 641.087058 -1338.105728 
L 642.253881 -1338.261841 
L 643.420705 -1338.401981 
L 644.587529 -1338.514232 
L 645.754352 -1338.589138 
L 646.921176 -1338.620011 
L 648.088 -1338.603114 
L 649.254824 -1338.537682 
L 650.421647 -1338.425767 
L 651.588471 -1338.271905 
L 652.755295 -1338.082646 
L 653.922119 -1337.865967 
L 655.088942 -1337.630632 
L 656.255766 -1337.385558 
L 657.42259 -1337.139229 
L 658.589414 -1336.899219 
L 659.756237 -1336.671836 
L 660.923061 -1336.461917 
L 662.089885 -1336.27276 
L 663.256708 -1336.106183 
L 664.423532 -1335.962682 
L 665.590356 -1335.841656 
L 665.590356 -1334.977344 
L 665.590356 -1334.977344 
L 664.423532 -1334.856318 
L 663.256708 -1334.712817 
L 662.089885 -1334.54624 
L 660.923061 -1334.357083 
L 659.756237 -1334.147164 
L 658.589414 -1333.919781 
L 657.42259 -1333.679771 
L 656.255766 -1333.433442 
L 655.088942 -1333.188368 
L 653.922119 -1332.953033 
L 652.755295 -1332.736354 
L 651.588471 -1332.547095 
L 650.421647 -1332.393233 
L 649.254824 -1332.281318 
L 648.088 -1332.215886 
L 646.921176 -1332.198989 
L 645.754352 -1332.229862 
L 644.587529 -1332.304768 
L 643.420705 -1332.417019 
L 642.253881 -1332.557159 
L 641.087058 -1332.713272 
L 639.920234 -1332.871387 
L 638.75341 -1333.015919 
L 637.586586 -1333.130129 
L 636.419763 -1333.196562 
L 635.252939 -1333.197458 
L 634.086115 -1333.115156 
L 632.919291 -1332.932488 
L 631.752468 -1332.633214 
L 630.585644 -1332.202504 
L 629.41882 -1331.627492 
L 628.251997 -1330.897901 
L 627.085173 -1330.006699 
L 625.918349 -1328.950756 
L 624.751525 -1327.731412 
L 623.584702 -1326.354895 
L 622.417878 -1324.832498 
L 621.251054 -1323.180458 
L 620.08423 -1321.419501 
L 618.917407 -1319.574055 
L 617.750583 -1317.671179 
L 616.583759 -1315.739302 
L 615.416935 -1313.806888 
L 614.250112 -1311.901177 
L 613.083288 -1310.047141 
L 611.916464 -1308.26679 
L 610.749641 -1306.578891 
L 609.582817 -1304.999142 
L 608.415993 -1303.540762 
L 607.249169 -1302.215392 
L 606.082346 -1301.034153 
L 604.915522 -1300.008686 
L 603.748698 -1299.151974 
L 602.581874 -1298.478766 
L 601.415051 -1298.005488 
L 600.248227 -1297.749568 
L 599.081403 -1297.728207 
L 597.914579 -1297.956684 
L 596.747756 -1298.446381 
L 595.580932 -1299.202763 
L 594.414108 -1300.223544 
L 593.247285 -1301.497317 
L 592.080461 -1303.002837 
L 590.913637 -1304.709105 
L 589.746813 -1306.576313 
L 588.57999 -1308.557609 
L 587.413166 -1310.601542 
L 586.246342 -1312.654989 
L 585.079518 -1314.666299 
L 583.912695 -1316.588358 
L 582.745871 -1318.381315 
L 581.579047 -1320.014708 
L 580.412223 -1321.468833 
L 579.2454 -1322.735251 
L 578.078576 -1323.816419 
L 576.911752 -1324.724525 
L 575.744929 -1325.479665 
L 574.578105 -1326.107563 
L 573.411281 -1326.637058 
L 572.244457 -1327.097597 
L 571.077634 -1327.516941 
L 569.91081 -1327.919272 
L 568.743986 -1328.323816 
L 567.577162 -1328.744053 
L 566.410339 -1329.187514 
L 565.243515 -1329.656114 
L 564.076691 -1330.146917 
L 562.909867 -1330.653206 
L 561.743044 -1331.165723 
L 560.57622 -1331.673932 
L 559.409396 -1332.167179 
L 558.242573 -1332.635677 
L 557.075749 -1333.071234 
L 555.908925 -1333.467711 
L 554.742101 -1333.821221 
L 553.575278 -1334.130089 
L 552.408454 -1334.394638 
L 551.24163 -1334.616849 
L 550.074806 -1334.799952 
z
" id="m25adedce4c" style="stroke:#3e3e3e;stroke-width:3.75;"/>
    </defs>
    <g clip-path="url(#p236f747140)">
     <use style="fill:#cb3335;stroke:#3e3e3e;stroke-width:3.75;" x="0" xlink:href="#m25adedce4c" y="1459.7235"/>
    </g>
   </g>
   <g id="PolyCollection_2">
    <defs>
     <path d="M 562.826229 -1168.273132 
L 562.826229 -1169.905868 
L 563.647098 -1170.164435 
L 564.467968 -1170.488764 
L 565.288837 -1170.890694 
L 566.109707 -1171.382948 
L 566.930577 -1171.978899 
L 567.751446 -1172.692272 
L 568.572316 -1173.536767 
L 569.393185 -1174.525607 
L 570.214055 -1175.671012 
L 571.034924 -1176.983605 
L 571.855794 -1178.471767 
L 572.676663 -1180.140954 
L 573.497533 -1181.993017 
L 574.318402 -1184.025535 
L 575.139272 -1186.231227 
L 575.960141 -1188.597475 
L 576.781011 -1191.105997 
L 577.60188 -1193.732728 
L 578.42275 -1196.447919 
L 579.243619 -1199.216495 
L 580.064489 -1201.998667 
L 580.885358 -1204.750795 
L 581.706228 -1207.426482 
L 582.527097 -1209.977877 
L 583.347967 -1212.357136 
L 584.168836 -1214.518009 
L 584.989706 -1216.417498 
L 585.810576 -1218.017533 
L 586.631445 -1219.286589 
L 587.452315 -1220.201181 
L 588.273184 -1220.747135 
L 589.094054 -1220.920541 
L 589.914923 -1220.728281 
L 590.735793 -1220.188039 
L 591.556662 -1219.327717 
L 592.377532 -1218.184222 
L 593.198401 -1216.80164 
L 594.019271 -1215.22887 
L 594.84014 -1213.516861 
L 595.66101 -1211.715656 
L 596.481879 -1209.871469 
L 597.302749 -1208.024075 
L 598.123618 -1206.204741 
L 598.944488 -1204.434908 
L 599.765357 -1202.725761 
L 600.586227 -1201.078721 
L 601.407096 -1199.486802 
L 602.227966 -1197.936689 
L 603.048835 -1196.411291 
L 603.869705 -1194.892505 
L 604.690574 -1193.363881 
L 605.511444 -1191.812925 
L 606.332314 -1190.232812 
L 607.153183 -1188.623368 
L 607.974053 -1186.99128 
L 608.794922 -1185.349562 
L 609.615792 -1183.716409 
L 610.436661 -1182.113611 
L 611.257531 -1180.564746 
L 612.0784 -1179.09335 
L 612.89927 -1177.721264 
L 613.720139 -1176.467285 
L 614.541009 -1175.346212 
L 615.361878 -1174.36832 
L 616.182748 -1173.539211 
L 617.003617 -1172.860005 
L 617.824487 -1172.327752 
L 618.645356 -1171.935988 
L 619.466226 -1171.675324 
L 620.287095 -1171.534023 
L 621.107965 -1171.498501 
L 621.928834 -1171.553748 
L 622.749704 -1171.683686 
L 623.570573 -1171.871473 
L 624.391443 -1172.099818 
L 625.212313 -1172.351317 
L 626.033182 -1172.608852 
L 626.854052 -1172.856058 
L 627.674921 -1173.077839 
L 628.495791 -1173.260917 
L 629.31666 -1173.39436 
L 630.13753 -1173.470037 
L 630.958399 -1173.482949 
L 631.779269 -1173.431394 
L 632.600138 -1173.316929 
L 633.421008 -1173.14414 
L 634.241877 -1172.920209 
L 635.062747 -1172.654335 
L 635.883616 -1172.357049 
L 636.704486 -1172.039491 
L 637.525355 -1171.712696 
L 638.346225 -1171.386968 
L 639.167094 -1171.071372 
L 639.987964 -1170.773367 
L 640.808833 -1170.498612 
L 641.629703 -1170.250917 
L 642.450572 -1170.032335 
L 643.271442 -1169.843355 
L 644.092312 -1169.68317 
L 644.092312 -1168.49583 
L 644.092312 -1168.49583 
L 643.271442 -1168.335645 
L 642.450572 -1168.146665 
L 641.629703 -1167.928083 
L 640.808833 -1167.680388 
L 639.987964 -1167.405633 
L 639.167094 -1167.107628 
L 638.346225 -1166.792032 
L 637.525355 -1166.466304 
L 636.704486 -1166.139509 
L 635.883616 -1165.821951 
L 635.062747 -1165.524665 
L 634.241877 -1165.258791 
L 633.421008 -1165.03486 
L 632.600138 -1164.862071 
L 631.779269 -1164.747606 
L 630.958399 -1164.696051 
L 630.13753 -1164.708963 
L 629.31666 -1164.78464 
L 628.495791 -1164.918083 
L 627.674921 -1165.101161 
L 626.854052 -1165.322942 
L 626.033182 -1165.570148 
L 625.212313 -1165.827683 
L 624.391443 -1166.079182 
L 623.570573 -1166.307527 
L 622.749704 -1166.495314 
L 621.928834 -1166.625252 
L 621.107965 -1166.680499 
L 620.287095 -1166.644977 
L 619.466226 -1166.503676 
L 618.645356 -1166.243012 
L 617.824487 -1165.851248 
L 617.003617 -1165.318995 
L 616.182748 -1164.639789 
L 615.361878 -1163.81068 
L 614.541009 -1162.832788 
L 613.720139 -1161.711715 
L 612.89927 -1160.457736 
L 612.0784 -1159.08565 
L 611.257531 -1157.614254 
L 610.436661 -1156.065389 
L 609.615792 -1154.462591 
L 608.794922 -1152.829438 
L 607.974053 -1151.18772 
L 607.153183 -1149.555632 
L 606.332314 -1147.946188 
L 605.511444 -1146.366075 
L 604.690574 -1144.815119 
L 603.869705 -1143.286495 
L 603.048835 -1141.767709 
L 602.227966 -1140.242311 
L 601.407096 -1138.692198 
L 600.586227 -1137.100279 
L 599.765357 -1135.453239 
L 598.944488 -1133.744092 
L 598.123618 -1131.974259 
L 597.302749 -1130.154925 
L 596.481879 -1128.307531 
L 595.66101 -1126.463344 
L 594.84014 -1124.662139 
L 594.019271 -1122.95013 
L 593.198401 -1121.37736 
L 592.377532 -1119.994778 
L 591.556662 -1118.851283 
L 590.735793 -1117.990961 
L 589.914923 -1117.450719 
L 589.094054 -1117.258459 
L 588.273184 -1117.431865 
L 587.452315 -1117.977819 
L 586.631445 -1118.892411 
L 585.810576 -1120.161467 
L 584.989706 -1121.761502 
L 584.168836 -1123.660991 
L 583.347967 -1125.821864 
L 582.527097 -1128.201123 
L 581.706228 -1130.752518 
L 580.885358 -1133.428205 
L 580.064489 -1136.180333 
L 579.243619 -1138.962505 
L 578.42275 -1141.731081 
L 577.60188 -1144.446272 
L 576.781011 -1147.073003 
L 575.960141 -1149.581525 
L 575.139272 -1151.947773 
L 574.318402 -1154.153465 
L 573.497533 -1156.185983 
L 572.676663 -1158.038046 
L 571.855794 -1159.707233 
L 571.034924 -1161.195395 
L 570.214055 -1162.507988 
L 569.393185 -1163.653393 
L 568.572316 -1164.642233 
L 567.751446 -1165.486728 
L 566.930577 -1166.200101 
L 566.109707 -1166.796052 
L 565.288837 -1167.288306 
L 564.467968 -1167.690236 
L 563.647098 -1168.014565 
L 562.826229 -1168.273132 
z
" id="mdb2fc54c2c" style="stroke:#3e3e3e;stroke-width:3.75;"/>
    </defs>
    <g clip-path="url(#p236f747140)">
     <use style="fill:#477ca8;stroke:#3e3e3e;stroke-width:3.75;" x="0" xlink:href="#mdb2fc54c2c" y="1459.7235"/>
    </g>
   </g>
   <g id="PolyCollection_3">
    <defs>
     <path d="M 394.038333 -1001.972792 
L 394.038333 -1003.566208 
L 394.686813 -1003.795656 
L 395.335294 -1004.069875 
L 395.983774 -1004.391083 
L 396.632254 -1004.759809 
L 397.280735 -1005.174619 
L 397.929215 -1005.631999 
L 398.577696 -1006.126489 
L 399.226176 -1006.651074 
L 399.874657 -1007.19788 
L 400.523137 -1007.75912 
L 401.171617 -1008.328248 
L 401.820098 -1008.90119 
L 402.468578 -1009.477524 
L 403.117059 -1010.061445 
L 403.765539 -1010.662356 
L 404.41402 -1011.294962 
L 405.0625 -1011.978782 
L 405.71098 -1012.737086 
L 406.359461 -1013.595296 
L 407.007941 -1014.579029 
L 407.656422 -1015.711959 
L 408.304902 -1017.013754 
L 408.953383 -1018.498327 
L 409.601863 -1020.172612 
L 410.250343 -1022.036018 
L 410.898824 -1024.080612 
L 411.547304 -1026.291993 
L 412.195785 -1028.650701 
L 412.844265 -1031.133956 
L 413.492746 -1033.717442 
L 414.141226 -1036.376873 
L 414.789706 -1039.089103 
L 415.438187 -1041.832614 
L 416.086667 -1044.587344 
L 416.735148 -1047.333899 
L 417.383628 -1050.052332 
L 418.032109 -1052.720716 
L 418.680589 -1055.313813 
L 419.329069 -1057.802099 
L 419.97755 -1060.151377 
L 420.62603 -1062.323112 
L 421.274511 -1064.27549 
L 421.922991 -1065.965125 
L 422.571472 -1067.349212 
L 423.219952 -1068.387879 
L 423.868432 -1069.04647 
L 424.516913 -1069.2975 
L 425.165393 -1069.122128 
L 425.813874 -1068.511027 
L 426.462354 -1067.46466 
L 427.110835 -1065.993052 
L 427.759315 -1064.11517 
L 428.407795 -1061.858085 
L 429.056276 -1059.256041 
L 429.704756 -1056.349541 
L 430.353237 -1053.184484 
L 431.001717 -1049.811346 
L 431.650198 -1046.284332 
L 432.298678 -1042.660438 
L 432.947158 -1038.998336 
L 433.595639 -1035.357047 
L 434.244119 -1031.794404 
L 434.8926 -1028.365366 
L 435.54108 -1025.12028 
L 436.189561 -1022.10322 
L 436.838041 -1019.350546 
L 437.486521 -1016.889788 
L 438.135002 -1014.738954 
L 438.783482 -1012.906278 
L 439.431963 -1011.390418 
L 440.080443 -1010.181046 
L 440.728924 -1009.259758 
L 441.377404 -1008.601219 
L 442.025884 -1008.174478 
L 442.674365 -1007.944365 
L 443.322845 -1007.872953 
L 443.971326 -1007.921027 
L 444.619806 -1008.049548 
L 445.268287 -1008.221087 
L 445.916767 -1008.401174 
L 446.565247 -1008.559538 
L 447.213728 -1008.671148 
L 447.862208 -1008.717 
L 448.510689 -1008.684581 
L 449.159169 -1008.567965 
L 449.80765 -1008.367517 
L 450.45613 -1008.089221 
L 451.10461 -1007.743694 
L 451.753091 -1007.344962 
L 452.401571 -1006.909111 
L 453.050052 -1006.452938 
L 453.698532 -1005.992708 
L 454.347013 -1005.543115 
L 454.995493 -1005.116509 
L 455.643973 -1004.722428 
L 456.292454 -1004.367422 
L 456.940934 -1004.05514 
L 457.589415 -1003.786627 
L 458.237895 -1003.560765 
L 458.237895 -1001.978235 
L 458.237895 -1001.978235 
L 457.589415 -1001.752373 
L 456.940934 -1001.48386 
L 456.292454 -1001.171578 
L 455.643973 -1000.816572 
L 454.995493 -1000.422491 
L 454.347013 -999.995885 
L 453.698532 -999.546292 
L 453.050052 -999.086062 
L 452.401571 -998.629889 
L 451.753091 -998.194038 
L 451.10461 -997.795306 
L 450.45613 -997.449779 
L 449.80765 -997.171483 
L 449.159169 -996.971035 
L 448.510689 -996.854419 
L 447.862208 -996.822 
L 447.213728 -996.867852 
L 446.565247 -996.979462 
L 445.916767 -997.137826 
L 445.268287 -997.317913 
L 444.619806 -997.489452 
L 443.971326 -997.617973 
L 443.322845 -997.666047 
L 442.674365 -997.594635 
L 442.025884 -997.364522 
L 441.377404 -996.937781 
L 440.728924 -996.279242 
L 440.080443 -995.357954 
L 439.431963 -994.148582 
L 438.783482 -992.632722 
L 438.135002 -990.800046 
L 437.486521 -988.649212 
L 436.838041 -986.188454 
L 436.189561 -983.43578 
L 435.54108 -980.41872 
L 434.8926 -977.173634 
L 434.244119 -973.744596 
L 433.595639 -970.181953 
L 432.947158 -966.540664 
L 432.298678 -962.878562 
L 431.650198 -959.254668 
L 431.001717 -955.727654 
L 430.353237 -952.354516 
L 429.704756 -949.189459 
L 429.056276 -946.282959 
L 428.407795 -943.680915 
L 427.759315 -941.42383 
L 427.110835 -939.545948 
L 426.462354 -938.07434 
L 425.813874 -937.027973 
L 425.165393 -936.416872 
L 424.516913 -936.2415 
L 423.868432 -936.49253 
L 423.219952 -937.151121 
L 422.571472 -938.189788 
L 421.922991 -939.573875 
L 421.274511 -941.26351 
L 420.62603 -943.215888 
L 419.97755 -945.387623 
L 419.329069 -947.736901 
L 418.680589 -950.225187 
L 418.032109 -952.818284 
L 417.383628 -955.486668 
L 416.735148 -958.205101 
L 416.086667 -960.951656 
L 415.438187 -963.706386 
L 414.789706 -966.449897 
L 414.141226 -969.162127 
L 413.492746 -971.821558 
L 412.844265 -974.405044 
L 412.195785 -976.888299 
L 411.547304 -979.247007 
L 410.898824 -981.458388 
L 410.250343 -983.502982 
L 409.601863 -985.366388 
L 408.953383 -987.040673 
L 408.304902 -988.525246 
L 407.656422 -989.827041 
L 407.007941 -990.959971 
L 406.359461 -991.943704 
L 405.71098 -992.801914 
L 405.0625 -993.560218 
L 404.41402 -994.244038 
L 403.765539 -994.876644 
L 403.117059 -995.477555 
L 402.468578 -996.061476 
L 401.820098 -996.63781 
L 401.171617 -997.210752 
L 400.523137 -997.77988 
L 399.874657 -998.34112 
L 399.226176 -998.887926 
L 398.577696 -999.412511 
L 397.929215 -999.907001 
L 397.280735 -1000.364381 
L 396.632254 -1000.779191 
L 395.983774 -1001.147917 
L 395.335294 -1001.469125 
L 394.686813 -1001.743344 
L 394.038333 -1001.972792 
z
" id="m14608eaa6a" style="stroke:#3e3e3e;stroke-width:3.75;"/>
    </defs>
    <g clip-path="url(#p236f747140)">
     <use style="fill:#59a257;stroke:#3e3e3e;stroke-width:3.75;" x="0" xlink:href="#m14608eaa6a" y="1459.7235"/>
    </g>
   </g>
   <g id="PolyCollection_4">
    <defs>
     <path d="M 167.481092 -835.6766 
L 167.481092 -837.2224 
L 168.200596 -837.434642 
L 168.9201 -837.690454 
L 169.639603 -837.994586 
L 170.359107 -838.351247 
L 171.078611 -838.763818 
L 171.798114 -839.234565 
L 172.517618 -839.764374 
L 173.237122 -840.352519 
L 173.956625 -840.996505 
L 174.676129 -841.691986 
L 175.395633 -842.432791 
L 176.115136 -843.211058 
L 176.83464 -844.017488 
L 177.554144 -844.841712 
L 178.273647 -845.672757 
L 178.993151 -846.499593 
L 179.712655 -847.311732 
L 180.432158 -848.099849 
L 181.151662 -848.856382 
L 181.871165 -849.576082 
L 182.590669 -850.256462 
L 183.310173 -850.898132 
L 184.029676 -851.504968 
L 184.74918 -852.084119 
L 185.468684 -852.645824 
L 186.188187 -853.203051 
L 186.907691 -853.770972 
L 187.627195 -854.366285 
L 188.346698 -855.006429 
L 189.066202 -855.708728 
L 189.785706 -856.489507 
L 190.505209 -857.363225 
L 191.224713 -858.341673 
L 191.944217 -859.433284 
L 192.66372 -860.642577 
L 193.383224 -861.969778 
L 194.102727 -863.410624 
L 194.822231 -864.956366 
L 195.541735 -866.59397 
L 196.261238 -868.306487 
L 196.980742 -870.073597 
L 197.700246 -871.872258 
L 198.419749 -873.677451 
L 199.139253 -875.462946 
L 199.858757 -877.202054 
L 200.57826 -878.868314 
L 201.297764 -880.43607 
L 202.017268 -881.880922 
L 202.736771 -883.180034 
L 203.456275 -884.312308 
L 204.175779 -885.25846 
L 204.895282 -886.001042 
L 205.614786 -886.524462 
L 206.334289 -886.815059 
L 207.053793 -886.861291 
L 207.773297 -886.654052 
L 208.4928 -886.18714 
L 209.212304 -885.457839 
L 209.931808 -884.467583 
L 210.651311 -883.222601 
L 211.370815 -881.734476 
L 212.090319 -880.020505 
L 212.809822 -878.103784 
L 213.529326 -876.012949 
L 214.24883 -873.781534 
L 214.968333 -871.446966 
L 215.687837 -869.049229 
L 216.407341 -866.629277 
L 217.126844 -864.227329 
L 217.846348 -861.881141 
L 218.565852 -859.624421 
L 219.285355 -857.485486 
L 220.004859 -855.486269 
L 220.724362 -853.641754 
L 221.443866 -851.95985 
L 222.16337 -850.441718 
L 222.882873 -849.082481 
L 223.602377 -847.872259 
L 224.321881 -846.797412 
L 225.041384 -845.841899 
L 225.760888 -844.988614 
L 226.480392 -844.22063 
L 227.199895 -843.522231 
L 227.919399 -842.879713 
L 228.638903 -842.281888 
L 229.358406 -841.720314 
L 230.07791 -841.189264 
L 230.797414 -840.685472 
L 231.516917 -840.20773 
L 232.236421 -839.756378 
L 232.955924 -839.33276 
L 233.675428 -838.938706 
L 234.394932 -838.576068 
L 235.114435 -838.246358 
L 235.833939 -837.950487 
L 236.553443 -837.688623 
L 237.272946 -837.460149 
L 237.99245 -837.263699 
L 238.711954 -837.097269 
L 238.711954 -835.801731 
L 238.711954 -835.801731 
L 237.99245 -835.635301 
L 237.272946 -835.438851 
L 236.553443 -835.210377 
L 235.833939 -834.948513 
L 235.114435 -834.652642 
L 234.394932 -834.322932 
L 233.675428 -833.960294 
L 232.955924 -833.56624 
L 232.236421 -833.142622 
L 231.516917 -832.69127 
L 230.797414 -832.213528 
L 230.07791 -831.709736 
L 229.358406 -831.178686 
L 228.638903 -830.617112 
L 227.919399 -830.019287 
L 227.199895 -829.376769 
L 226.480392 -828.67837 
L 225.760888 -827.910386 
L 225.041384 -827.057101 
L 224.321881 -826.101588 
L 223.602377 -825.026741 
L 222.882873 -823.816519 
L 222.16337 -822.457282 
L 221.443866 -820.93915 
L 220.724362 -819.257246 
L 220.004859 -817.412731 
L 219.285355 -815.413514 
L 218.565852 -813.274579 
L 217.846348 -811.017859 
L 217.126844 -808.671671 
L 216.407341 -806.269723 
L 215.687837 -803.849771 
L 214.968333 -801.452034 
L 214.24883 -799.117466 
L 213.529326 -796.886051 
L 212.809822 -794.795216 
L 212.090319 -792.878495 
L 211.370815 -791.164524 
L 210.651311 -789.676399 
L 209.931808 -788.431417 
L 209.212304 -787.441161 
L 208.4928 -786.71186 
L 207.773297 -786.244948 
L 207.053793 -786.037709 
L 206.334289 -786.083941 
L 205.614786 -786.374538 
L 204.895282 -786.897958 
L 204.175779 -787.64054 
L 203.456275 -788.586692 
L 202.736771 -789.718966 
L 202.017268 -791.018078 
L 201.297764 -792.46293 
L 200.57826 -794.030686 
L 199.858757 -795.696946 
L 199.139253 -797.436054 
L 198.419749 -799.221549 
L 197.700246 -801.026742 
L 196.980742 -802.825403 
L 196.261238 -804.592513 
L 195.541735 -806.30503 
L 194.822231 -807.942634 
L 194.102727 -809.488376 
L 193.383224 -810.929222 
L 192.66372 -812.256423 
L 191.944217 -813.465716 
L 191.224713 -814.557327 
L 190.505209 -815.535775 
L 189.785706 -816.409493 
L 189.066202 -817.190272 
L 188.346698 -817.892571 
L 187.627195 -818.532715 
L 186.907691 -819.128028 
L 186.188187 -819.695949 
L 185.468684 -820.253176 
L 184.74918 -820.814881 
L 184.029676 -821.394032 
L 183.310173 -822.000868 
L 182.590669 -822.642538 
L 181.871165 -823.322918 
L 181.151662 -824.042618 
L 180.432158 -824.799151 
L 179.712655 -825.587268 
L 178.993151 -826.399407 
L 178.273647 -827.226243 
L 177.554144 -828.057288 
L 176.83464 -828.881512 
L 176.115136 -829.687942 
L 175.395633 -830.466209 
L 174.676129 -831.207014 
L 173.956625 -831.902495 
L 173.237122 -832.546481 
L 172.517618 -833.134626 
L 171.798114 -833.664435 
L 171.078611 -834.135182 
L 170.359107 -834.547753 
L 169.639603 -834.904414 
L 168.9201 -835.208546 
L 168.200596 -835.464358 
L 167.481092 -835.6766 
z
" id="m7ab2fe4573" style="stroke:#3e3e3e;stroke-width:3.75;"/>
    </defs>
    <g clip-path="url(#p236f747140)">
     <use style="fill:#905998;stroke:#3e3e3e;stroke-width:3.75;" x="0" xlink:href="#m7ab2fe4573" y="1459.7235"/>
    </g>
   </g>
   <g id="PolyCollection_5">
    <defs>
     <path d="M 206.898706 -669.282176 
L 206.898706 -670.976824 
L 207.60373 -671.21374 
L 208.308754 -671.501587 
L 209.013778 -671.847036 
L 209.718802 -672.256628 
L 210.423826 -672.736545 
L 211.12885 -673.292376 
L 211.833873 -673.928895 
L 212.538897 -674.649863 
L 213.243921 -675.457874 
L 213.948945 -676.354246 
L 214.653969 -677.338976 
L 215.358993 -678.410753 
L 216.064017 -679.567025 
L 216.769041 -680.804113 
L 217.474065 -682.117361 
L 218.179089 -683.5013 
L 218.884113 -684.949821 
L 219.589137 -686.456337 
L 220.294161 -688.013931 
L 220.999185 -689.61548 
L 221.704208 -691.253751 
L 222.409232 -692.921478 
L 223.114256 -694.611406 
L 223.81928 -696.316311 
L 224.524304 -698.028993 
L 225.229328 -699.742229 
L 225.934352 -701.448676 
L 226.639376 -703.140734 
L 227.3444 -704.810344 
L 228.049424 -706.448742 
L 228.754448 -708.046177 
L 229.459472 -709.591626 
L 230.164496 -711.07254 
L 230.86952 -712.47467 
L 231.574544 -713.782033 
L 232.279567 -714.977058 
L 232.984591 -716.040946 
L 233.689615 -716.954278 
L 234.394639 -717.697834 
L 235.099663 -718.253613 
L 235.804687 -718.605968 
L 236.509711 -718.742769 
L 237.214735 -718.656494 
L 237.919759 -718.345126 
L 238.624783 -717.812759 
L 239.329807 -717.069825 
L 240.034831 -716.132892 
L 240.739855 -715.02402 
L 241.444879 -713.769698 
L 242.149903 -712.399445 
L 242.854926 -710.944171 
L 243.55995 -709.434432 
L 244.264974 -707.898738 
L 244.969998 -706.362043 
L 245.675022 -704.844563 
L 246.380046 -703.361014 
L 247.08507 -701.920331 
L 247.790094 -700.525897 
L 248.495118 -699.176226 
L 249.200142 -697.866042 
L 249.905166 -696.587626 
L 250.61019 -695.332286 
L 251.315214 -694.091816 
L 252.020238 -692.859769 
L 252.725262 -691.632443 
L 253.430285 -690.40948 
L 254.135309 -689.194027 
L 254.840333 -687.992477 
L 255.545357 -686.813815 
L 256.250381 -685.668689 
L 256.955405 -684.568295 
L 257.660429 -683.523225 
L 258.365453 -682.542406 
L 259.070477 -681.632231 
L 259.775501 -680.795989 
L 260.480525 -680.033617 
L 261.185549 -679.341802 
L 261.890573 -678.71439 
L 262.595597 -678.143048 
L 263.30062 -677.618085 
L 264.005644 -677.129341 
L 264.710668 -676.667054 
L 265.415692 -676.222604 
L 266.120716 -675.789095 
L 266.82574 -675.361707 
L 267.530764 -674.93783 
L 268.235788 -674.516981 
L 268.940812 -674.100536 
L 269.645836 -673.691333 
L 270.35086 -673.293193 
L 271.055884 -672.910419 
L 271.760908 -672.547323 
L 272.465932 -672.207822 
L 273.170956 -671.895123 
L 273.875979 -671.611519 
L 274.581003 -671.358292 
L 275.286027 -671.135711 
L 275.991051 -670.943118 
L 276.696075 -670.779061 
L 276.696075 -669.479939 
L 276.696075 -669.479939 
L 275.991051 -669.315882 
L 275.286027 -669.123289 
L 274.581003 -668.900708 
L 273.875979 -668.647481 
L 273.170956 -668.363877 
L 272.465932 -668.051178 
L 271.760908 -667.711677 
L 271.055884 -667.348581 
L 270.35086 -666.965807 
L 269.645836 -666.567667 
L 268.940812 -666.158464 
L 268.235788 -665.742019 
L 267.530764 -665.32117 
L 266.82574 -664.897293 
L 266.120716 -664.469905 
L 265.415692 -664.036396 
L 264.710668 -663.591946 
L 264.005644 -663.129659 
L 263.30062 -662.640915 
L 262.595597 -662.115952 
L 261.890573 -661.54461 
L 261.185549 -660.917198 
L 260.480525 -660.225383 
L 259.775501 -659.463011 
L 259.070477 -658.626769 
L 258.365453 -657.716594 
L 257.660429 -656.735775 
L 256.955405 -655.690705 
L 256.250381 -654.590311 
L 255.545357 -653.445185 
L 254.840333 -652.266523 
L 254.135309 -651.064973 
L 253.430285 -649.84952 
L 252.725262 -648.626557 
L 252.020238 -647.399231 
L 251.315214 -646.167184 
L 250.61019 -644.926714 
L 249.905166 -643.671374 
L 249.200142 -642.392958 
L 248.495118 -641.082774 
L 247.790094 -639.733103 
L 247.08507 -638.338669 
L 246.380046 -636.897986 
L 245.675022 -635.414437 
L 244.969998 -633.896957 
L 244.264974 -632.360262 
L 243.55995 -630.824568 
L 242.854926 -629.314829 
L 242.149903 -627.859555 
L 241.444879 -626.489302 
L 240.739855 -625.23498 
L 240.034831 -624.126108 
L 239.329807 -623.189175 
L 238.624783 -622.446241 
L 237.919759 -621.913874 
L 237.214735 -621.602506 
L 236.509711 -621.516231 
L 235.804687 -621.653032 
L 235.099663 -622.005387 
L 234.394639 -622.561166 
L 233.689615 -623.304722 
L 232.984591 -624.218054 
L 232.279567 -625.281942 
L 231.574544 -626.476967 
L 230.86952 -627.78433 
L 230.164496 -629.18646 
L 229.459472 -630.667374 
L 228.754448 -632.212823 
L 228.049424 -633.810258 
L 227.3444 -635.448656 
L 226.639376 -637.118266 
L 225.934352 -638.810324 
L 225.229328 -640.516771 
L 224.524304 -642.230007 
L 223.81928 -643.942689 
L 223.114256 -645.647594 
L 222.409232 -647.337522 
L 221.704208 -649.005249 
L 220.999185 -650.64352 
L 220.294161 -652.245069 
L 219.589137 -653.802663 
L 218.884113 -655.309179 
L 218.179089 -656.7577 
L 217.474065 -658.141639 
L 216.769041 -659.454887 
L 216.064017 -660.691975 
L 215.358993 -661.848247 
L 214.653969 -662.920024 
L 213.948945 -663.904754 
L 213.243921 -664.801126 
L 212.538897 -665.609137 
L 211.833873 -666.330105 
L 211.12885 -666.966624 
L 210.423826 -667.522455 
L 209.718802 -668.002372 
L 209.013778 -668.411964 
L 208.308754 -668.757413 
L 207.60373 -669.04526 
L 206.898706 -669.282176 
z
" id="mcb639c8a0e" style="stroke:#3e3e3e;stroke-width:3.75;"/>
    </defs>
    <g clip-path="url(#p236f747140)">
     <use style="fill:#df7f20;stroke:#3e3e3e;stroke-width:3.75;" x="0" xlink:href="#mcb639c8a0e" y="1459.7235"/>
    </g>
   </g>
   <g id="PolyCollection_6">
    <defs>
     <path d="M 243.43591 -503.112762 
L 243.43591 -504.506238 
L 244.166281 -504.702223 
L 244.896652 -504.937429 
L 245.627024 -505.215179 
L 246.357395 -505.538019 
L 247.087766 -505.907547 
L 247.818138 -506.324321 
L 248.548509 -506.787873 
L 249.27888 -507.296842 
L 250.009252 -507.849228 
L 250.739623 -508.442754 
L 251.469994 -509.075296 
L 252.200365 -509.745339 
L 252.930737 -510.452391 
L 253.661108 -511.197301 
L 254.391479 -511.982413 
L 255.121851 -512.811541 
L 255.852222 -513.689727 
L 256.582593 -514.622822 
L 257.312965 -515.616913 
L 258.043336 -516.677694 
L 258.773707 -517.809833 
L 259.504078 -519.01644 
L 260.23445 -520.2987 
L 260.964821 -521.655707 
L 261.695192 -523.084521 
L 262.425564 -524.580426 
L 263.155935 -526.137322 
L 263.886306 -527.74819 
L 264.616678 -529.405532 
L 265.347049 -531.101725 
L 266.07742 -532.829213 
L 266.807791 -534.58052 
L 267.538163 -536.348092 
L 268.268534 -538.123993 
L 268.998905 -539.899529 
L 269.729277 -541.664855 
L 270.459648 -543.408659 
L 271.190019 -545.117957 
L 271.920391 -546.778041 
L 272.650762 -548.372587 
L 273.381133 -549.883893 
L 274.111504 -551.293213 
L 274.841876 -552.581127 
L 275.572247 -553.727899 
L 276.302618 -554.713799 
L 277.03299 -555.519354 
L 277.763361 -556.125565 
L 278.493732 -556.514115 
L 279.224104 -556.667625 
L 279.954475 -556.570014 
L 280.684846 -556.207026 
L 281.415217 -555.566929 
L 282.145589 -554.641408 
L 282.87596 -553.426577 
L 283.606331 -551.924057 
L 284.336703 -550.141983 
L 285.067074 -548.095827 
L 285.797445 -545.808896 
L 286.527817 -543.3124 
L 287.258188 -540.645011 
L 287.988559 -537.851889 
L 288.71893 -534.983199 
L 289.449302 -532.092196 
L 290.179673 -529.233021 
L 290.910044 -526.458344 
L 291.640416 -523.817048 
L 292.370787 -521.352105 
L 293.101158 -519.098811 
L 293.83153 -517.08347 
L 294.561901 -515.32261 
L 295.292272 -513.822754 
L 296.022644 -512.580726 
L 296.753015 -511.58443 
L 297.483386 -510.814047 
L 298.213757 -510.24353 
L 298.944129 -509.842304 
L 299.6745 -509.577075 
L 300.404871 -509.413632 
L 301.135243 -509.318564 
L 301.865614 -509.260805 
L 302.595985 -509.212922 
L 303.326357 -509.152119 
L 304.056728 -509.060884 
L 304.787099 -508.927287 
L 305.51747 -508.744918 
L 306.247842 -508.512495 
L 306.978213 -508.233202 
L 307.708584 -507.913803 
L 308.438956 -507.563645 
L 309.169327 -507.193599 
L 309.899698 -506.815061 
L 310.63007 -506.43905 
L 311.360441 -506.075487 
L 312.090812 -505.732663 
L 312.821183 -505.416927 
L 313.551555 -505.132577 
L 314.281926 -504.881919 
L 315.012297 -504.665475 
L 315.742669 -504.482274 
L 315.742669 -503.136726 
L 315.742669 -503.136726 
L 315.012297 -502.953525 
L 314.281926 -502.737081 
L 313.551555 -502.486423 
L 312.821183 -502.202073 
L 312.090812 -501.886337 
L 311.360441 -501.543513 
L 310.63007 -501.17995 
L 309.899698 -500.803939 
L 309.169327 -500.425401 
L 308.438956 -500.055355 
L 307.708584 -499.705197 
L 306.978213 -499.385798 
L 306.247842 -499.106505 
L 305.51747 -498.874082 
L 304.787099 -498.691713 
L 304.056728 -498.558116 
L 303.326357 -498.466881 
L 302.595985 -498.406078 
L 301.865614 -498.358195 
L 301.135243 -498.300436 
L 300.404871 -498.205368 
L 299.6745 -498.041925 
L 298.944129 -497.776696 
L 298.213757 -497.37547 
L 297.483386 -496.804953 
L 296.753015 -496.03457 
L 296.022644 -495.038274 
L 295.292272 -493.796246 
L 294.561901 -492.29639 
L 293.83153 -490.53553 
L 293.101158 -488.520189 
L 292.370787 -486.266895 
L 291.640416 -483.801952 
L 290.910044 -481.160656 
L 290.179673 -478.385979 
L 289.449302 -475.526804 
L 288.71893 -472.635801 
L 287.988559 -469.767111 
L 287.258188 -466.973989 
L 286.527817 -464.3066 
L 285.797445 -461.810104 
L 285.067074 -459.523173 
L 284.336703 -457.477017 
L 283.606331 -455.694943 
L 282.87596 -454.192423 
L 282.145589 -452.977592 
L 281.415217 -452.052071 
L 280.684846 -451.411974 
L 279.954475 -451.048986 
L 279.224104 -450.951375 
L 278.493732 -451.104885 
L 277.763361 -451.493435 
L 277.03299 -452.099646 
L 276.302618 -452.905201 
L 275.572247 -453.891101 
L 274.841876 -455.037873 
L 274.111504 -456.325787 
L 273.381133 -457.735107 
L 272.650762 -459.246413 
L 271.920391 -460.840959 
L 271.190019 -462.501043 
L 270.459648 -464.210341 
L 269.729277 -465.954145 
L 268.998905 -467.719471 
L 268.268534 -469.495007 
L 267.538163 -471.270908 
L 266.807791 -473.03848 
L 266.07742 -474.789787 
L 265.347049 -476.517275 
L 264.616678 -478.213468 
L 263.886306 -479.87081 
L 263.155935 -481.481678 
L 262.425564 -483.038574 
L 261.695192 -484.534479 
L 260.964821 -485.963293 
L 260.23445 -487.3203 
L 259.504078 -488.60256 
L 258.773707 -489.809167 
L 258.043336 -490.941306 
L 257.312965 -492.002087 
L 256.582593 -492.996178 
L 255.852222 -493.929273 
L 255.121851 -494.807459 
L 254.391479 -495.636587 
L 253.661108 -496.421699 
L 252.930737 -497.166609 
L 252.200365 -497.873661 
L 251.469994 -498.543704 
L 250.739623 -499.176246 
L 250.009252 -499.769772 
L 249.27888 -500.322158 
L 248.548509 -500.831127 
L 247.818138 -501.294679 
L 247.087766 -501.711453 
L 246.357395 -502.080981 
L 245.627024 -502.403821 
L 244.896652 -502.681571 
L 244.166281 -502.916777 
L 243.43591 -503.112762 
z
" id="m9cbd87ddd5" style="stroke:#3e3e3e;stroke-width:3.75;"/>
    </defs>
    <g clip-path="url(#p236f747140)">
     <use style="fill:#e6e64c;stroke:#3e3e3e;stroke-width:3.75;" x="0" xlink:href="#m9cbd87ddd5" y="1459.7235"/>
    </g>
   </g>
   <g id="PolyCollection_7">
    <defs>
     <path d="M 432.785197 -336.344598 
L 432.785197 -338.634402 
L 433.601937 -338.965619 
L 434.418677 -339.370018 
L 435.235417 -339.857021 
L 436.052156 -340.435507 
L 436.868896 -341.113328 
L 437.685636 -341.896806 
L 438.502376 -342.79026 
L 439.319116 -343.795584 
L 440.135855 -344.911944 
L 440.952595 -346.135622 
L 441.769335 -347.460043 
L 442.586075 -348.876002 
L 443.402815 -350.372092 
L 444.219554 -351.935307 
L 445.036294 -353.551783 
L 445.853034 -355.207598 
L 446.669774 -356.889571 
L 447.486514 -358.585954 
L 448.303254 -360.286951 
L 449.119993 -361.98497 
L 449.936733 -363.674586 
L 450.753473 -365.352171 
L 451.570213 -367.015237 
L 452.386953 -368.661528 
L 453.203692 -370.287968 
L 454.020432 -371.889577 
L 454.837172 -373.45849 
L 455.653912 -374.983206 
L 456.470652 -376.448185 
L 457.287391 -377.833867 
L 458.104131 -379.117155 
L 458.920871 -380.272344 
L 459.737611 -381.272436 
L 460.554351 -382.090732 
L 461.371091 -382.702553 
L 462.18783 -383.086952 
L 463.00457 -383.228234 
L 463.82131 -383.117171 
L 464.63805 -382.751783 
L 465.45479 -382.13764 
L 466.271529 -381.287656 
L 467.088269 -380.221408 
L 467.905009 -378.964052 
L 468.721749 -377.544936 
L 469.538489 -375.996025 
L 470.355228 -374.350263 
L 471.171968 -372.640004 
L 471.988708 -370.895593 
L 472.805448 -369.144207 
L 473.622188 -367.408985 
L 474.438928 -365.708504 
L 475.255667 -364.05659 
L 476.072407 -362.462451 
L 476.889147 -360.931099 
L 477.705887 -359.463996 
L 478.522627 -358.05988 
L 479.339366 -356.715678 
L 480.156106 -355.427442 
L 480.972846 -354.191241 
L 481.789586 -353.003924 
L 482.606326 -351.863721 
L 483.423066 -350.770622 
L 484.239805 -349.72652 
L 485.056545 -348.735113 
L 485.873285 -347.80158 
L 486.690025 -346.932069 
L 487.506765 -346.133048 
L 488.323504 -345.410576 
L 489.140244 -344.76958 
L 489.956984 -344.213184 
L 490.773724 -343.742173 
L 491.590464 -343.354632 
L 492.407203 -343.045797 
L 493.223943 -342.808133 
L 494.040683 -342.63164 
L 494.857423 -342.504349 
L 495.674163 -342.412979 
L 496.490903 -342.343696 
L 497.307642 -342.282908 
L 498.124382 -342.218035 
L 498.941122 -342.138187 
L 499.757862 -342.034713 
L 500.574602 -341.901558 
L 501.391341 -341.735435 
L 502.208081 -341.535793 
L 503.024821 -341.304594 
L 503.841561 -341.045944 
L 504.658301 -340.765602 
L 505.47504 -340.470435 
L 506.29178 -340.167843 
L 507.10852 -339.865223 
L 507.92526 -339.569502 
L 508.742 -339.286762 
L 509.55874 -339.021978 
L 510.375479 -338.778875 
L 511.192219 -338.559886 
L 512.008959 -338.366217 
L 512.825699 -338.19797 
L 513.642439 -338.054328 
L 513.642439 -336.924672 
L 513.642439 -336.924672 
L 512.825699 -336.78103 
L 512.008959 -336.612783 
L 511.192219 -336.419114 
L 510.375479 -336.200125 
L 509.55874 -335.957022 
L 508.742 -335.692238 
L 507.92526 -335.409498 
L 507.10852 -335.113777 
L 506.29178 -334.811157 
L 505.47504 -334.508565 
L 504.658301 -334.213398 
L 503.841561 -333.933056 
L 503.024821 -333.674406 
L 502.208081 -333.443207 
L 501.391341 -333.243565 
L 500.574602 -333.077442 
L 499.757862 -332.944287 
L 498.941122 -332.840813 
L 498.124382 -332.760965 
L 497.307642 -332.696092 
L 496.490903 -332.635304 
L 495.674163 -332.566021 
L 494.857423 -332.474651 
L 494.040683 -332.34736 
L 493.223943 -332.170867 
L 492.407203 -331.933203 
L 491.590464 -331.624368 
L 490.773724 -331.236827 
L 489.956984 -330.765816 
L 489.140244 -330.20942 
L 488.323504 -329.568424 
L 487.506765 -328.845952 
L 486.690025 -328.046931 
L 485.873285 -327.17742 
L 485.056545 -326.243887 
L 484.239805 -325.25248 
L 483.423066 -324.208378 
L 482.606326 -323.115279 
L 481.789586 -321.975076 
L 480.972846 -320.787759 
L 480.156106 -319.551558 
L 479.339366 -318.263322 
L 478.522627 -316.91912 
L 477.705887 -315.515004 
L 476.889147 -314.047901 
L 476.072407 -312.516549 
L 475.255667 -310.92241 
L 474.438928 -309.270496 
L 473.622188 -307.570015 
L 472.805448 -305.834793 
L 471.988708 -304.083407 
L 471.171968 -302.338996 
L 470.355228 -300.628737 
L 469.538489 -298.982975 
L 468.721749 -297.434064 
L 467.905009 -296.014948 
L 467.088269 -294.757592 
L 466.271529 -293.691344 
L 465.45479 -292.84136 
L 464.63805 -292.227217 
L 463.82131 -291.861829 
L 463.00457 -291.750766 
L 462.18783 -291.892048 
L 461.371091 -292.276447 
L 460.554351 -292.888268 
L 459.737611 -293.706564 
L 458.920871 -294.706656 
L 458.104131 -295.861845 
L 457.287391 -297.145133 
L 456.470652 -298.530815 
L 455.653912 -299.995794 
L 454.837172 -301.52051 
L 454.020432 -303.089423 
L 453.203692 -304.691032 
L 452.386953 -306.317472 
L 451.570213 -307.963763 
L 450.753473 -309.626829 
L 449.936733 -311.304414 
L 449.119993 -312.99403 
L 448.303254 -314.692049 
L 447.486514 -316.393046 
L 446.669774 -318.089429 
L 445.853034 -319.771402 
L 445.036294 -321.427217 
L 444.219554 -323.043693 
L 443.402815 -324.606908 
L 442.586075 -326.102998 
L 441.769335 -327.518957 
L 440.952595 -328.843378 
L 440.135855 -330.067056 
L 439.319116 -331.183416 
L 438.502376 -332.18874 
L 437.685636 -333.082194 
L 436.868896 -333.865672 
L 436.052156 -334.543493 
L 435.235417 -335.121979 
L 434.418677 -335.608982 
L 433.601937 -336.013381 
L 432.785197 -336.344598 
z
" id="mf94e376870" style="stroke:#3e3e3e;stroke-width:3.75;"/>
    </defs>
    <g clip-path="url(#p236f747140)">
     <use style="fill:#965a38;stroke:#3e3e3e;stroke-width:3.75;" x="0" xlink:href="#mf94e376870" y="1459.7235"/>
    </g>
   </g>
   <g id="PolyCollection_8">
    <defs>
     <path d="M 227.006985 -170.040489 
L 227.006985 -172.298511 
L 227.735319 -172.633475 
L 228.463654 -173.045175 
L 229.191988 -173.544222 
L 229.920323 -174.140781 
L 230.648657 -174.844001 
L 231.376992 -175.661379 
L 232.105326 -176.598097 
L 232.833661 -177.656393 
L 233.561995 -178.835003 
L 234.29033 -180.128742 
L 235.018664 -181.528281 
L 235.746999 -183.020162 
L 236.475333 -184.587092 
L 237.203668 -186.208544 
L 237.932002 -187.861628 
L 238.660337 -189.522238 
L 239.388671 -191.166382 
L 240.117006 -192.771622 
L 240.845341 -194.318525 
L 241.573675 -195.791999 
L 242.30201 -197.18239 
L 243.030344 -198.486245 
L 243.758679 -199.706633 
L 244.487013 -200.852974 
L 245.215348 -201.940346 
L 245.943682 -202.988293 
L 246.672017 -204.019202 
L 247.400351 -205.056349 
L 248.128686 -206.12175 
L 248.85702 -207.233994 
L 249.585355 -208.406219 
L 250.313689 -209.6444 
L 251.042024 -210.946104 
L 251.770358 -212.299829 
L 252.498693 -213.684991 
L 253.227027 -215.072584 
L 253.955362 -216.426488 
L 254.683696 -217.705323 
L 255.412031 -218.864738 
L 256.140365 -219.859946 
L 256.8687 -220.648341 
L 257.597035 -221.191989 
L 258.325369 -221.459812 
L 259.053704 -221.429327 
L 259.782038 -221.087794 
L 260.510373 -220.432745 
L 261.238707 -219.471849 
L 261.967042 -218.222172 
L 262.695376 -216.708922 
L 263.423711 -214.963795 
L 264.152045 -213.023088 
L 264.88038 -210.925731 
L 265.608714 -208.711405 
L 266.337049 -206.418871 
L 267.065383 -204.084624 
L 267.793718 -201.741918 
L 268.522052 -199.420203 
L 269.250387 -197.144926 
L 269.978721 -194.937655 
L 270.707056 -192.816428 
L 271.43539 -190.796236 
L 272.163725 -188.889537 
L 272.892059 -187.106709 
L 273.620394 -185.456384 
L 274.348728 -183.945617 
L 275.077063 -182.579879 
L 275.805398 -181.362895 
L 276.533732 -180.296371 
L 277.262067 -179.379668 
L 277.990401 -178.609481 
L 278.718736 -177.979604 
L 279.44707 -177.480825 
L 280.175405 -177.100992 
L 280.903739 -176.825288 
L 281.632074 -176.636693 
L 282.360408 -176.516625 
L 283.088743 -176.44572 
L 283.817077 -176.40469 
L 284.545412 -176.375204 
L 285.273746 -176.340708 
L 286.002081 -176.287147 
L 286.730415 -176.203511 
L 287.45875 -176.082182 
L 288.187084 -175.919052 
L 288.915419 -175.71342 
L 289.643753 -175.467676 
L 290.372088 -175.186818 
L 291.100422 -174.877846 
L 291.828757 -174.549079 
L 292.557091 -174.209473 
L 293.285426 -173.867971 
L 294.013761 -173.53294 
L 294.742095 -173.211732 
L 295.47043 -172.910365 
L 296.198764 -172.633362 
L 296.927099 -172.383705 
L 297.655433 -172.162907 
L 298.383768 -171.971171 
L 299.112102 -171.807604 
L 299.112102 -170.531396 
L 299.112102 -170.531396 
L 298.383768 -170.367829 
L 297.655433 -170.176093 
L 296.927099 -169.955295 
L 296.198764 -169.705638 
L 295.47043 -169.428635 
L 294.742095 -169.127268 
L 294.013761 -168.80606 
L 293.285426 -168.471029 
L 292.557091 -168.129527 
L 291.828757 -167.789921 
L 291.100422 -167.461154 
L 290.372088 -167.152182 
L 289.643753 -166.871324 
L 288.915419 -166.62558 
L 288.187084 -166.419948 
L 287.45875 -166.256818 
L 286.730415 -166.135489 
L 286.002081 -166.051853 
L 285.273746 -165.998292 
L 284.545412 -165.963796 
L 283.817077 -165.93431 
L 283.088743 -165.89328 
L 282.360408 -165.822375 
L 281.632074 -165.702307 
L 280.903739 -165.513712 
L 280.175405 -165.238008 
L 279.44707 -164.858175 
L 278.718736 -164.359396 
L 277.990401 -163.729519 
L 277.262067 -162.959332 
L 276.533732 -162.042629 
L 275.805398 -160.976105 
L 275.077063 -159.759121 
L 274.348728 -158.393383 
L 273.620394 -156.882616 
L 272.892059 -155.232291 
L 272.163725 -153.449463 
L 271.43539 -151.542764 
L 270.707056 -149.522572 
L 269.978721 -147.401345 
L 269.250387 -145.194074 
L 268.522052 -142.918797 
L 267.793718 -140.597082 
L 267.065383 -138.254376 
L 266.337049 -135.920129 
L 265.608714 -133.627595 
L 264.88038 -131.413269 
L 264.152045 -129.315912 
L 263.423711 -127.375205 
L 262.695376 -125.630078 
L 261.967042 -124.116828 
L 261.238707 -122.867151 
L 260.510373 -121.906255 
L 259.782038 -121.251206 
L 259.053704 -120.909673 
L 258.325369 -120.879188 
L 257.597035 -121.147011 
L 256.8687 -121.690659 
L 256.140365 -122.479054 
L 255.412031 -123.474262 
L 254.683696 -124.633677 
L 253.955362 -125.912512 
L 253.227027 -127.266416 
L 252.498693 -128.654009 
L 251.770358 -130.039171 
L 251.042024 -131.392896 
L 250.313689 -132.6946 
L 249.585355 -133.932781 
L 248.85702 -135.105006 
L 248.128686 -136.21725 
L 247.400351 -137.282651 
L 246.672017 -138.319798 
L 245.943682 -139.350707 
L 245.215348 -140.398654 
L 244.487013 -141.486026 
L 243.758679 -142.632367 
L 243.030344 -143.852755 
L 242.30201 -145.15661 
L 241.573675 -146.547001 
L 240.845341 -148.020475 
L 240.117006 -149.567378 
L 239.388671 -151.172618 
L 238.660337 -152.816762 
L 237.932002 -154.477372 
L 237.203668 -156.130456 
L 236.475333 -157.751908 
L 235.746999 -159.318838 
L 235.018664 -160.810719 
L 234.29033 -162.210258 
L 233.561995 -163.503997 
L 232.833661 -164.682607 
L 232.105326 -165.740903 
L 231.376992 -166.677621 
L 230.648657 -167.494999 
L 229.920323 -168.198219 
L 229.191988 -168.794778 
L 228.463654 -169.293825 
L 227.735319 -169.705525 
L 227.006985 -170.040489 
z
" id="m83e000e10c" style="stroke:#3e3e3e;stroke-width:3.75;"/>
    </defs>
    <g clip-path="url(#p236f747140)">
     <use style="fill:#e890be;stroke:#3e3e3e;stroke-width:3.75;" x="0" xlink:href="#m83e000e10c" y="1459.7235"/>
    </g>
   </g>
   <g id="line2d_1">
    <path clip-path="url(#p236f747140)" d="M 568.375846 124.314 
L 616.069252 124.314 
" style="fill:none;stroke:#3e3e3e;stroke-linecap:round;stroke-width:3.75;"/>
   </g>
   <g id="line2d_2">
    <path clip-path="url(#p236f747140)" d="M 592.997888 124.314 
L 609.528012 124.314 
" style="fill:none;stroke:#3e3e3e;stroke-linecap:round;stroke-width:11.25;"/>
   </g>
   <g id="line2d_3">
    <path clip-path="url(#p236f747140)" d="M 576.148237 290.634 
L 606.034754 290.634 
" style="fill:none;stroke:#3e3e3e;stroke-linecap:round;stroke-width:3.75;"/>
   </g>
   <g id="line2d_4">
    <path clip-path="url(#p236f747140)" d="M 585.071327 290.634 
L 597.506967 290.634 
" style="fill:none;stroke:#3e3e3e;stroke-linecap:round;stroke-width:11.25;"/>
   </g>
   <g id="line2d_5">
    <path clip-path="url(#p236f747140)" d="M 413.271021 456.954 
L 432.46209 456.954 
" style="fill:none;stroke:#3e3e3e;stroke-linecap:round;stroke-width:3.75;"/>
   </g>
   <g id="line2d_6">
    <path clip-path="url(#p236f747140)" d="M 418.782004 456.954 
L 428.571972 456.954 
" style="fill:none;stroke:#3e3e3e;stroke-linecap:round;stroke-width:11.25;"/>
   </g>
   <g id="line2d_7">
    <path clip-path="url(#p236f747140)" d="M 179.916371 623.274 
L 226.276675 623.274 
" style="fill:none;stroke:#3e3e3e;stroke-linecap:round;stroke-width:3.75;"/>
   </g>
   <g id="line2d_8">
    <path clip-path="url(#p236f747140)" d="M 198.908858 623.274 
L 211.594523 623.274 
" style="fill:none;stroke:#3e3e3e;stroke-linecap:round;stroke-width:11.25;"/>
   </g>
   <g id="line2d_9">
    <path clip-path="url(#p236f747140)" d="M 219.163586 789.594 
L 264.431195 789.594 
" style="fill:none;stroke:#3e3e3e;stroke-linecap:round;stroke-width:3.75;"/>
   </g>
   <g id="line2d_10">
    <path clip-path="url(#p236f747140)" d="M 230.001091 789.594 
L 244.225252 789.594 
" style="fill:none;stroke:#3e3e3e;stroke-linecap:round;stroke-width:11.25;"/>
   </g>
   <g id="line2d_11">
    <path clip-path="url(#p236f747140)" d="M 255.193607 955.914 
L 287.74468 955.914 
" style="fill:none;stroke:#3e3e3e;stroke-linecap:round;stroke-width:3.75;"/>
   </g>
   <g id="line2d_12">
    <path clip-path="url(#p236f747140)" d="M 271.834073 955.914 
L 283.107567 955.914 
" style="fill:none;stroke:#3e3e3e;stroke-linecap:round;stroke-width:11.25;"/>
   </g>
   <g id="line2d_13">
    <path clip-path="url(#p236f747140)" d="M 446.798078 1122.234 
L 483.391278 1122.234 
" style="fill:none;stroke:#3e3e3e;stroke-linecap:round;stroke-width:3.75;"/>
   </g>
   <g id="line2d_14">
    <path clip-path="url(#p236f747140)" d="M 458.463379 1122.234 
L 470.040077 1122.234 
" style="fill:none;stroke:#3e3e3e;stroke-linecap:round;stroke-width:11.25;"/>
   </g>
   <g id="line2d_15">
    <path clip-path="url(#p236f747140)" d="M 239.405976 1288.554 
L 271.157524 1288.554 
" style="fill:none;stroke:#3e3e3e;stroke-linecap:round;stroke-width:3.75;"/>
   </g>
   <g id="line2d_16">
    <path clip-path="url(#p236f747140)" d="M 250.290895 1288.554 
L 263.455072 1288.554 
" style="fill:none;stroke:#3e3e3e;stroke-linecap:round;stroke-width:11.25;"/>
   </g>
   <g id="patch_3">
    <path d="M 126.249 1371.714 
L 126.249 41.154 
" style="fill:none;stroke:#000000;stroke-linecap:square;stroke-linejoin:miter;stroke-width:10;"/>
   </g>
   <g id="patch_4">
    <path d="M 126.249 1371.714 
L 769.065 1371.714 
" style="fill:none;stroke:#000000;stroke-linecap:square;stroke-linejoin:miter;stroke-width:10;"/>
   </g>
   <g id="PathCollection_1">
    <defs>
     <path d="M 0 3.75 
C 0.994512 3.75 1.948425 3.354876 2.65165 2.65165 
C 3.354876 1.948425 3.75 0.994512 3.75 0 
C 3.75 -0.994512 3.354876 -1.948425 2.65165 -2.65165 
C 1.948425 -3.354876 0.994512 -3.75 0 -3.75 
C -0.994512 -3.75 -1.948425 -3.354876 -2.65165 -2.65165 
C -3.354876 -1.948425 -3.75 -0.994512 -3.75 0 
C -3.75 0.994512 -3.354876 1.948425 -2.65165 2.65165 
C -1.948425 3.354876 -0.994512 3.75 0 3.75 
z
" id="m62987ff9d7" style="stroke:#3e3e3e;"/>
    </defs>
    <g clip-path="url(#p236f747140)">
     <use style="fill:#ffffff;stroke:#3e3e3e;" x="599.047261" xlink:href="#m62987ff9d7" y="124.314"/>
    </g>
   </g>
   <g id="PathCollection_2">
    <g clip-path="url(#p236f747140)">
     <use style="fill:#ffffff;stroke:#3e3e3e;" x="590.48319" xlink:href="#m62987ff9d7" y="290.634"/>
    </g>
   </g>
   <g id="PathCollection_3">
    <g clip-path="url(#p236f747140)">
     <use style="fill:#ffffff;stroke:#3e3e3e;" x="423.999036" xlink:href="#m62987ff9d7" y="456.954"/>
    </g>
   </g>
   <g id="PathCollection_4">
    <g clip-path="url(#p236f747140)">
     <use style="fill:#ffffff;stroke:#3e3e3e;" x="205.202713" xlink:href="#m62987ff9d7" y="623.274"/>
    </g>
   </g>
   <g id="PathCollection_5">
    <g clip-path="url(#p236f747140)">
     <use style="fill:#ffffff;stroke:#3e3e3e;" x="237.256682" xlink:href="#m62987ff9d7" y="789.594"/>
    </g>
   </g>
   <g id="PathCollection_6">
    <g clip-path="url(#p236f747140)">
     <use style="fill:#ffffff;stroke:#3e3e3e;" x="277.565563" xlink:href="#m62987ff9d7" y="955.914"/>
    </g>
   </g>
   <g id="PathCollection_7">
    <g clip-path="url(#p236f747140)">
     <use style="fill:#ffffff;stroke:#3e3e3e;" x="463.003062" xlink:href="#m62987ff9d7" y="1122.234"/>
    </g>
   </g>
   <g id="PathCollection_8">
    <g clip-path="url(#p236f747140)">
     <use style="fill:#ffffff;stroke:#3e3e3e;" x="257.338537" xlink:href="#m62987ff9d7" y="1288.554"/>
    </g>
   </g>
   <g id="text_15">
    <text style="fill:#262626;font-family:Arial;font-size:38.4px;font-stretch:normal;font-style:normal;font-weight:normal;text-anchor:middle;" transform="rotate(-0, 447.657, 35.154)" x="447.657" y="35.154">MCS Distance to starting point</text>
   </g>
  </g>
 </g>
 <defs>
  <clipPath id="p236f747140">
   <rect height="1330.56" width="642.816" x="126.249" y="41.154"/>
  </clipPath>
 </defs>
</svg>
